<svg width="20" height="19" viewBox="0 0 20 19" fill="none" xmlns="http://www.w3.org/2000/svg">
<path d="M1 14.2445C0.734784 14.2445 0.48043 14.1391 0.292893 13.9516C0.105357 13.7641 0 13.5097 0 13.2445C0 12.9793 0.105357 12.7249 0.292893 12.5374C0.48043 12.3498 0.734784 12.2445 1 12.2445H11.5C12.5 12.2445 13.5 14.2445 13 14.2445H1ZM15 14.2445C14.7348 14.2445 14.4804 14.1391 14.2929 13.9516C14.1054 13.7641 14 13.5097 14 13.2445C14 12.9793 14.1054 12.7249 14.2929 12.5374C14.4804 12.3498 14.7348 12.2445 15 12.2445H19C19.2652 12.2445 19.5196 12.3498 19.7071 12.5374C19.8946 12.7249 20 12.9793 20 13.2445C20 13.5097 19.8946 13.7641 19.7071 13.9516C19.5196 14.1391 19.2652 14.2445 19 14.2445H15ZM10.633 0.745488C10.7653 0.515545 10.9836 0.347594 11.2398 0.27858C11.496 0.209567 11.7691 0.245145 11.999 0.377488C12.2289 0.509831 12.3969 0.728098 12.4659 0.984273C12.5349 1.24045 12.4993 1.51355 12.367 1.74349L5.46 13.7395C5.39454 13.8533 5.30729 13.9532 5.20324 14.0333C5.09918 14.1135 4.98037 14.1723 4.85357 14.2065C4.72677 14.2408 4.59447 14.2497 4.46423 14.2328C4.33399 14.2158 4.20836 14.1735 4.0945 14.108C3.98064 14.0425 3.8808 13.9553 3.80066 13.8512C3.72052 13.7472 3.66166 13.6284 3.62745 13.5016C3.59323 13.3748 3.58432 13.2425 3.60123 13.1122C3.61814 12.982 3.66054 12.8563 3.726 12.7425L10.633 0.745488ZM2 15.7445C2.5 14.7445 5.5 13.7445 4.5 15.4645C3.95742 16.3922 3.41308 17.3189 2.867 18.2445C2.73466 18.4744 2.51639 18.6424 2.26022 18.7114C2.00404 18.7804 1.73094 18.7448 1.501 18.6125C1.27106 18.4801 1.10311 18.2619 1.03409 18.0057C0.965079 17.7495 1.00066 17.4764 1.133 17.2465L2 15.7445ZM7.133 1.74349C7.00066 1.51355 6.96508 1.24045 7.03409 0.984273C7.10311 0.728098 7.27106 0.509831 7.501 0.377488C7.73094 0.245145 8.00404 0.209567 8.26022 0.27858C8.51639 0.347594 8.73466 0.515545 8.867 0.745488L10.61 3.77449C10.6776 3.88837 10.7219 4.01455 10.7404 4.1457C10.7588 4.27684 10.751 4.41035 10.7175 4.53847C10.6839 4.66658 10.6252 4.78676 10.5448 4.89201C10.4644 4.99726 10.3639 5.08549 10.2492 5.15159C10.1344 5.21768 10.0077 5.26032 9.87627 5.27702C9.74489 5.29373 9.61149 5.28417 9.48384 5.2489C9.35618 5.21363 9.2368 5.15336 9.13262 5.07157C9.02845 4.98979 8.94156 4.88813 8.877 4.77249L7.133 1.74349ZM11 8.74449C10.102 7.24449 11 4.24449 11.716 5.74049L18.366 17.2445C18.4942 17.474 18.5268 17.7448 18.4568 17.9983C18.3867 18.2517 18.2197 18.4673 17.9919 18.5985C17.7641 18.7297 17.4937 18.766 17.2394 18.6993C16.9851 18.6327 16.7672 18.4686 16.633 18.2425L11 8.74449Z" fill="#012063"/>
</svg>
