<svg width="24" height="25" viewBox="0 0 24 25" fill="none" xmlns="http://www.w3.org/2000/svg">
<g clip-path="url(#clip0_1397_1425)">
<path d="M2.0017 0.349728C2.12359 0.279999 2.2617 0.243585 2.40213 0.244147C2.54256 0.244709 2.68036 0.282226 2.8017 0.352928L15.3505 7.67293L11.4673 11.1673L1.6001 2.28733V1.04413C1.59998 0.903274 1.63706 0.764886 1.70757 0.642955C1.77809 0.521024 1.87955 0.419873 2.0017 0.349728ZM1.6001 4.44093V20.0473L10.2721 12.2441L1.6001 4.44093ZM1.6001 22.2009V23.4441C1.60006 23.5849 1.63716 23.7232 1.70765 23.845C1.77815 23.9669 1.87954 24.0679 2.0016 24.1381C2.12365 24.2082 2.26205 24.2448 2.40281 24.2444C2.54358 24.2439 2.68172 24.2063 2.8033 24.1353L15.3505 16.8153L11.4673 13.3209L1.6001 22.2009ZM16.8017 15.9689L22.0017 12.9353C22.1226 12.8649 22.2228 12.764 22.2925 12.6427C22.3622 12.5214 22.3989 12.384 22.3989 12.2441C22.3989 12.1042 22.3622 11.9668 22.2925 11.8455C22.2228 11.7242 22.1226 11.6234 22.0017 11.5529L16.8017 8.51933L12.6625 12.2441L16.8017 15.9689Z" fill="white"/>
</g>
<defs>
<clipPath id="clip0_1397_1425">
<rect width="24" height="24" fill="white" transform="translate(0 0.244141)"/>
</clipPath>
</defs>
</svg>
