<svg width="506" height="406" viewBox="0 0 506 406" fill="none" xmlns="http://www.w3.org/2000/svg">
<g clip-path="url(#clip0_659_7096)">
<path opacity="0.24" d="M191.666 13.7567C173.839 28.4085 164.654 51.936 149.311 69.4801C126.868 95.1705 92.4838 106.715 71.7071 133.905C47.6841 165.314 47.5752 212.236 64.1172 248.725C72.6101 267.495 85.4077 286.697 81.461 307.075C79.5616 316.962 73.8322 325.597 71.5747 335.393C67.5968 352.638 75.3035 371.268 87.7976 383.028C100.292 394.787 116.834 400.572 133.298 403.431C187.532 412.837 242.366 393.486 297.301 392.45C313.501 392.135 329.778 393.42 345.869 391.389C387.85 386.102 426.049 357.354 447.106 318.354C450.36 312.346 453.333 305.832 453.411 298.896C453.52 291.827 450.679 285.139 448.024 278.658C439.461 257.808 432.191 236.112 429.816 213.512C427.31 189.769 430.299 165.72 428.672 141.886C425.714 98.6263 404.089 53.9912 366.248 37.9223C335.492 24.8616 298.562 34.5577 268.942 18.7622C256.487 12.1324 252.361 1.98881 236.972 0.347937C221.06 -1.35923 204.386 3.27333 191.666 13.7567Z" fill="white"/>
<path opacity="0.24" d="M174.665 346.058C157.757 345.959 137.47 347.881 129.515 363.776C156.169 382.837 190.164 385.083 222.29 385.091C237.081 385.091 251.957 384.76 266.623 382.605C286.652 379.621 306.074 373.24 325.403 366.859L347.285 359.666C349.364 358.978 351.808 357.876 352.12 355.58C354.369 339.362 291.401 346.423 281.429 346.705C245.924 347.682 210.201 346.282 174.665 346.058Z" fill="#68E1FD"/>
<path d="M229.125 88.6908C229.125 88.6908 214.444 95.4615 212.716 96.978C211.159 98.3537 215.363 192.223 215.682 196.814C216.001 201.406 239.487 202.168 249.669 200.096C256.454 198.612 263.092 196.451 269.496 193.64C269.496 193.64 272.711 96.6797 270.71 94.9642C268.71 93.2488 249.272 86.8262 249.272 86.8262L229.125 88.6908Z" fill="#68E1FD"/>
<path d="M264.396 93.9931C264.396 93.9931 268.88 93.6781 271.932 95.6505C274.983 97.6229 303.693 124.341 304.409 132.206C305.125 140.07 299.357 145.042 296.842 144.504C294.328 143.965 286.582 135.868 284.846 133.324C283.11 130.78 267.72 127.391 267.72 127.391L264.396 93.9931Z" fill="#68E1FD"/>
<path d="M214.576 142.25C214.579 142.792 214.776 143.313 215.128 143.705C215.48 144.098 215.959 144.333 216.467 144.363C225.855 146.509 235.026 140.634 244.429 138.562C248.695 137.642 253.187 137.484 257.102 135.454C261.898 132.968 265.113 128.062 268.102 123.355L275.886 111.156C277.124 109.2 278.393 106.656 277.233 104.65C276.33 103.092 274.267 102.711 272.625 103.266C270.982 103.822 269.674 105.098 268.382 106.308C261.898 112.367 254.777 117.606 247.162 121.921C243.927 123.847 240.502 125.384 236.948 126.504C230.721 128.327 219.573 126.794 213.283 127.084C213.252 127.117 213.797 137.716 214.576 142.25Z" fill="url(#paint0_linear_659_7096)"/>
<path d="M296.671 119.925C298.46 120.789 300.014 122.124 301.186 123.803C303.217 126.754 306.721 131.038 307.413 134.577C308.238 138.679 304.798 144.48 300.835 145.218C298.4 145.609 295.911 145.316 293.616 144.367C291.32 143.417 289.298 141.845 287.75 139.806C286.235 137.729 285.199 135.303 284.726 132.722C284.253 130.141 284.355 127.478 285.025 124.947C286.637 118.707 292.156 117.737 296.671 119.925Z" fill="#68E1FD"/>
<path d="M255.888 350.998C255.888 350.998 254.129 363.354 255.11 364.755C256.091 366.155 261.633 365.7 265.066 364.887C268.499 364.075 269.332 359.352 269.332 359.352L269.566 355.465L255.888 350.998Z" fill="#BA816C"/>
<path d="M208.605 345.238C208.605 345.238 205.086 362.003 205.911 363.47C206.737 364.937 212.918 361.299 216.389 360.843C219.861 360.387 220.196 354.421 220.196 354.421L220.788 350.575L208.605 345.238Z" fill="#BA816C"/>
<path d="M228.479 79.5157C228.479 79.5157 229.771 89.5184 228.743 93.2228C227.716 96.9272 232.488 108.016 239.564 108.695C246.64 109.375 247.73 96.5625 247.862 95.0543C247.994 93.546 245.931 92.5681 246.951 88.8886C247.971 85.209 229.568 75.0572 228.479 79.5157Z" fill="#BA816C"/>
<path d="M246.951 88.881C246.173 91.7401 247.208 92.9666 247.667 94.0688C245.968 95.5676 243.809 96.3466 241.603 96.2566C237.353 95.8423 231.296 91.4666 229.039 84.4059L228.922 84.0164C228.728 81.4888 228.479 79.5081 228.479 79.5081C229.568 75.0579 247.979 85.1849 246.951 88.881Z" fill="#A6634C"/>
<path d="M229 91.8147C229 91.8147 233.5 106.591 238.24 108.563C238.24 108.563 239.501 109.442 235.773 111.364C232.044 113.287 223.084 101.03 225.201 92.8755C225.436 91.837 225.917 90.8801 226.598 90.0964C227.28 89.3128 228.139 88.7288 229.094 88.4004L229 91.8147Z" fill="white"/>
<path d="M246.827 90.389C246.827 90.389 247.512 100.997 242.935 107.792C242.935 107.792 244.398 110.643 245.815 110.776C247.232 110.908 251.536 102.207 250.696 95.2867C250.197 91.2757 247.629 89.3779 246.827 90.389Z" fill="white"/>
<path d="M216.389 196.896L213.47 260.26L207.873 348.105C207.873 348.105 211.088 352.207 220.328 352.34L236.995 262.978L244.826 217.564L251.583 261.835L254.393 354.097C254.393 354.097 260.94 354.238 269.433 355.058L274.944 264.072L269.495 193.631L216.389 196.896Z" fill="#606161"/>
<path d="M216.389 196.896L213.47 260.26L207.873 348.105C207.873 348.105 211.088 352.207 220.328 352.34L236.995 262.978L244.826 217.564L251.583 261.835L254.393 354.097C254.393 354.097 260.94 354.238 269.433 355.058L274.944 264.072L269.495 193.631L216.389 196.896Z" fill="url(#paint1_linear_659_7096)"/>
<path d="M253.693 59.8921C253.693 59.8921 253.452 79.6241 251.583 84.7538C249.715 89.8836 245.091 94.019 240.841 93.6046C236.591 93.1903 230.542 88.8146 228.285 81.7622C226.027 74.7097 226.011 57.9695 226.914 55.7982C227.817 53.627 232.691 46.8895 243.9 49.069C251.63 50.5773 253.95 56.8756 253.693 59.8921Z" fill="#BA816C"/>
<path d="M246.103 43.9384C244.745 42.3096 243.11 40.9685 241.284 39.9854C239.461 39.147 237.502 38.6965 235.516 38.6594C231.709 38.4688 227.42 39.4467 225.334 42.803C223.979 45.0157 223.832 47.7754 223.979 50.4522C224.029 50.8085 223.985 51.1724 223.855 51.5046C223.466 52.2836 222.407 52.1262 221.582 52.1179C218.305 52.1179 216.086 56.2615 216.818 59.651C217.783 64.1178 221.893 65.0045 223.723 68.4852C224.018 69.0487 224.431 69.6785 225.038 69.6951C225.817 69.6951 226.229 68.7835 226.455 68.0377C227.591 64.0598 227.085 60.3223 229.771 56.8168C229.942 56.5417 230.203 56.3439 230.503 56.2615C231.421 56.1538 231.561 57.977 232.48 58.1179C233.321 56.9742 234.527 55.6814 235.835 56.1206C236.597 56.5188 237.219 57.1665 237.61 57.9687C238.681 59.5626 240.041 60.9113 241.611 61.9346C243.181 62.9579 244.928 63.6349 246.748 63.9256C248.568 64.2162 250.425 64.1145 252.208 63.6265C253.99 63.1385 255.663 62.2741 257.126 61.0847C258.162 60.3325 258.937 59.2372 259.329 57.9687C259.757 56.2615 259.025 54.4963 258.27 52.9218C257.708 51.5471 256.917 50.2921 255.935 49.2174C255.433 48.6829 254.816 48.2889 254.136 48.0706C253.457 47.8522 252.738 47.8163 252.042 47.966C251.475 48.2549 250.849 48.386 250.221 48.3472C249.809 48.1804 249.45 47.8931 249.186 47.5185C248.142 46.3665 247.146 45.1152 246.103 43.9384Z" fill="#606161"/>
<path d="M227.249 68.743C227.249 68.743 226.922 64.1519 223.964 65.3867C221.006 66.6215 223.839 75.2568 225.194 76.1601C225.792 76.6359 226.504 76.923 227.249 76.9888" fill="#BA816C"/>
<path d="M293.713 132.985C293.713 132.985 289.969 126.919 298.29 120.612C306.612 114.305 332.262 96.8691 332.262 96.8691L333.889 106.938C333.889 106.938 309.15 140.841 302.704 139.739C300.821 139.417 299.032 138.642 297.474 137.471C295.915 136.3 294.629 134.766 293.713 132.985Z" fill="#BA816C"/>
<path d="M332.262 96.8686C332.904 95.6659 333.603 94.4986 334.356 93.3714C334.831 92.667 335.43 92.0952 335.913 91.4239C336.637 90.4129 336.356 88.4322 336.411 87.1643C336.409 85.7574 336.724 84.3706 337.329 83.1201C337.439 82.8848 337.616 82.6931 337.835 82.5731C337.982 82.5239 338.138 82.518 338.288 82.5559C338.437 82.5938 338.574 82.6743 338.684 82.7886C338.905 83.0226 339.075 83.3055 339.182 83.6173C339.742 84.9607 340.084 86.3953 340.194 87.8604C340.264 88.946 340.568 89.8079 341.603 89.3604C342.59 88.9429 343.615 88.6373 344.662 88.4488C345.604 88.2748 348.555 87.6201 348.913 89.1118C349.567 91.7968 345.511 101.634 345.254 102.371C344.997 103.109 333.881 106.987 333.881 106.987L332.262 96.8686Z" fill="#BA816C"/>
<path d="M194.165 365.102C193.526 365.741 192.849 366.544 192.982 367.464C193.114 368.384 193.916 368.923 194.679 369.312C199.972 372.014 206.2 371.558 211.96 370.299C214.093 369.834 216.327 369.188 217.822 367.497C218.654 366.494 219.251 365.296 219.566 364C220.028 362.312 220.184 360.546 220.025 358.796C220.036 358.451 219.971 358.108 219.836 357.795C219.701 357.481 219.499 357.205 219.246 356.989C218.909 356.819 218.537 356.742 218.164 356.766C214.327 356.674 208.784 355.324 205.258 356.956C201.128 358.936 197.37 361.696 194.165 365.102Z" fill="#606161"/>
<path d="M257.515 360.296C256.614 360.052 255.668 360.066 254.774 360.337C254.236 360.611 253.775 361.031 253.437 361.554C253.099 362.078 252.898 362.687 252.852 363.321C252.773 364.591 252.91 365.865 253.256 367.083C253.407 368.131 253.791 369.126 254.377 369.984C255.199 370.846 256.257 371.409 257.398 371.591C259.548 372.047 261.73 372.305 263.921 372.362L277.7 373.149C278.723 373.337 279.775 373.128 280.666 372.561C281.133 372.075 281.434 371.436 281.52 370.746C281.607 370.057 281.473 369.356 281.14 368.757C280.443 367.579 279.483 366.602 278.346 365.915C275.699 364.05 271.955 360.942 268.763 360.428C267.245 360.163 265.354 360.752 263.797 360.76C261.695 360.775 259.595 360.62 257.515 360.296Z" fill="#606161"/>
<path d="M194.165 365.102C193.526 365.741 192.849 366.544 192.982 367.464C193.114 368.384 193.916 368.923 194.679 369.312C199.972 372.014 206.2 371.558 211.96 370.299C214.093 369.834 216.327 369.188 217.822 367.497C218.654 366.494 219.251 365.296 219.566 364C220.028 362.312 220.184 360.546 220.025 358.796C220.036 358.451 219.971 358.108 219.836 357.795C219.701 357.481 219.499 357.205 219.246 356.989C218.909 356.819 218.537 356.742 218.164 356.766C214.327 356.674 208.784 355.324 205.258 356.956C201.128 358.936 197.37 361.696 194.165 365.102Z" fill="url(#paint2_linear_659_7096)"/>
<path d="M257.515 360.296C256.614 360.052 255.668 360.066 254.774 360.337C254.236 360.611 253.775 361.031 253.437 361.554C253.099 362.078 252.898 362.687 252.852 363.321C252.773 364.591 252.91 365.865 253.256 367.083C253.407 368.131 253.791 369.126 254.377 369.984C255.199 370.846 256.257 371.409 257.398 371.591C259.548 372.047 261.73 372.305 263.921 372.362L277.7 373.149C278.723 373.337 279.775 373.128 280.666 372.561C281.133 372.075 281.434 371.436 281.52 370.746C281.607 370.057 281.473 369.356 281.14 368.757C280.443 367.579 279.483 366.602 278.346 365.915C275.699 364.05 271.955 360.942 268.763 360.428C267.245 360.163 265.354 360.752 263.797 360.76C261.695 360.775 259.595 360.62 257.515 360.296Z" fill="url(#paint3_linear_659_7096)"/>
<path d="M379.607 159.073C379.55 158.728 379.559 158.374 379.633 158.032C379.706 157.691 379.843 157.368 380.035 157.084C381.888 154.854 383.303 152.252 384.197 149.431C385.092 146.61 385.447 143.628 385.243 140.659C385.003 135.455 382.87 130.556 379.295 126.998C375.721 123.44 370.986 121.503 366.093 121.598L322.593 122.352C322.588 121.912 322.612 121.471 322.663 121.034C323.302 116.551 323.901 112.076 324.586 107.617C325.551 101.703 325.326 95.6388 323.924 89.8246C321.994 81.8026 318.958 74.2363 315.681 66.7447C314.015 62.916 311.656 60.0237 308.005 58.2834C300.68 54.7945 293.542 54.6536 286.691 59.5099C282.309 62.6094 279.779 66.6867 280.121 72.6369C280.479 79.2667 280.323 85.8219 280.495 92.4351C280.611 94.0426 280.385 95.6573 279.833 97.1588C279.234 98.5925 278.276 99.7527 277.692 101.228C277.156 102.396 276.561 103.533 275.91 104.634C274.711 106.971 273.504 109.291 272.235 111.579C268.507 118.382 264.988 125.335 260.38 131.543C258.542 134.029 256.557 136.399 254.572 138.777C254.035 139.424 253.42 139.822 252.517 139.084C250.576 137.602 248.216 136.873 245.83 137.02C228.788 137.297 211.75 137.587 194.718 137.891C187.883 138.007 183.126 143.609 183.671 150.877C184.208 157.507 184.816 164.136 185.4 170.7C185.906 176.725 186.365 182.749 186.956 188.749C187.595 195.968 188.303 203.186 188.965 210.396C189.432 215.302 189.806 220.199 190.288 225.105C190.454 225.819 190.716 226.503 191.067 227.136L190.397 227.252C190.74 229.738 190.662 232.473 191.526 234.777C194.134 241.663 199.17 242.749 204.83 242.161C204.946 242.161 205.009 241.796 205.094 241.597C205.833 241.869 206.598 242.052 207.375 242.144C220.905 241.929 234.457 241.721 247.987 241.431C250.04 241.48 252.059 240.862 253.775 239.66C255.491 238.458 256.822 236.729 257.593 234.702C258.193 232.998 258.679 231.25 259.048 229.473C259.658 229.739 260.251 230.046 260.823 230.393C262.583 231.487 264.381 232.655 266.023 233.857C266.369 234.129 266.74 234.365 267.129 234.561C267.925 234.839 268.747 235.026 269.581 235.116C270.528 235.352 271.496 235.477 272.469 235.489C283.134 235.373 293.775 235.166 304.385 234.984C317.455 234.752 330.596 234.57 343.697 234.255L347.908 234.147C349.835 234.091 351.721 233.548 353.412 232.564C356.355 230.72 359.13 228.59 361.702 226.199C367.93 220.398 370.701 213.197 368.662 204.321C368.626 203.563 368.841 202.815 369.269 202.208C370.328 200.55 371.519 198.992 372.546 197.318C372.795 196.921 372.624 196.241 372.632 195.702C373.652 196.316 373.566 195.222 373.722 194.783C375.356 190.481 375.279 186.056 374.368 181.606C374.303 181.262 374.306 180.909 374.375 180.566C374.445 180.224 374.58 179.901 374.773 179.617C380.012 173.749 381.327 166.838 379.607 159.073ZM246.547 159.727L247.59 227.409C247.629 229.705 247.629 229.705 245.426 229.738C231.499 229.987 217.581 230.202 203.662 230.492C202.105 230.542 201.638 230.061 201.498 228.454C200.896 220.719 200.234 212.984 199.513 205.249C198.906 198.47 198.205 191.691 197.621 184.912C197.092 179.111 196.656 173.31 196.158 167.451C195.706 162.139 195.255 156.819 194.718 151.507C194.554 149.998 195.037 149.667 196.383 149.675C207.897 149.518 219.387 149.294 230.9 149.095C234.792 149.029 238.684 148.979 242.623 148.987C242.885 148.967 243.149 148.995 243.402 149.07C243.86 149.261 244.246 149.607 244.499 150.056C245.357 151.086 245.9 152.369 246.056 153.736C246.076 154.158 246.147 154.576 246.266 154.979C246.336 155.319 246.406 155.634 246.484 155.998C246.594 157.24 246.62 158.49 246.562 159.736L246.547 159.727ZM368.584 152.269C367.907 152.725 367.152 153.056 366.498 153.529C365.065 154.556 364.941 155.559 366.202 156.786C369.767 160.357 371.433 167.335 366.435 172.167C364.84 173.658 363.099 174.963 361.243 176.062C359.429 177.172 359.196 178.324 360.838 179.658C361.672 180.283 362.375 181.085 362.903 182.013C363.431 182.942 363.772 183.977 363.905 185.053C364.014 185.882 364.232 186.711 364.404 187.539C363.524 193.225 360.044 196.531 355.381 198.785C353.575 199.614 353.412 200.559 354.875 201.893C356.549 203.298 357.74 205.253 358.262 207.454C359.274 211.854 357.304 214.912 354.525 217.68C353.934 218.277 353.28 218.774 352.688 219.338C350.065 221.824 347.099 222.735 343.518 222.744C328.198 222.818 312.878 223.183 297.535 223.473C297.037 223.473 296.531 223.614 296.025 223.672C295.471 223.58 294.912 223.524 294.351 223.506L285.601 223.655L281.18 223.738C279.872 223.895 278.551 223.872 277.249 223.672C276.991 223.622 276.728 223.622 276.47 223.672C275.588 223.856 274.697 223.984 273.8 224.053C272.979 224.035 272.168 223.864 271.402 223.547C269.913 222.838 268.485 221.989 267.137 221.012C265.837 220.183 264.583 219.271 263.244 218.525C262.728 218.198 262.14 218.02 261.54 218.012C259.679 218.012 257.842 218.012 255.989 218.086C254.868 218.152 254.541 217.746 254.518 216.553C254.518 210.006 254.339 203.434 254.238 196.896C254.028 183.031 253.841 169.183 253.576 155.319C253.576 153.703 253.833 152.7 255.335 151.921C261.119 148.913 265.214 143.932 268.966 138.52C273.878 131.271 278.35 123.695 282.355 115.838L284.901 111.032C286.948 107.095 288.972 103.151 290.98 99.1561C291.338 98.3449 291.519 97.4582 291.51 96.5622C291.5 96.2038 291.439 95.849 291.331 95.5097C291.279 95.1395 291.258 94.7651 291.268 94.3909L291.23 91.7058C291.23 89.9268 291.209 88.1451 291.167 86.3606L291.004 75.6369C290.965 74.4187 290.941 73.2004 290.926 71.9988C290.897 71.5543 290.971 71.1091 291.14 70.7018C291.31 70.2945 291.57 69.9375 291.899 69.6618C295.877 65.9325 301.054 66.7944 304.743 69.5375C305.763 70.2999 306.137 72.0817 306.752 73.4325C309.556 79.6507 311.83 86.1241 313.548 92.7749C314.793 97.7472 314.505 102.72 313.711 107.692C312.471 115.36 311.22 123.034 309.959 130.714C309.788 131.766 309.671 132.844 309.531 134.029C309.856 134.077 310.184 134.102 310.512 134.103C329 133.78 347.511 133.532 366.015 133.117C371.565 132.968 375.356 138.222 374.461 143.833C373.831 147.728 371.643 150.33 368.599 152.286L368.584 152.269Z" fill="#68E1FD"/>
<path opacity="0.54" d="M379.335 157.326C379.274 156.981 379.281 156.627 379.353 156.285C379.425 155.943 379.562 155.621 379.755 155.337C381.608 153.105 383.024 150.502 383.919 147.68C384.815 144.858 385.172 141.874 384.971 138.903C384.737 133.693 382.607 128.785 379.032 125.218C375.458 121.651 370.719 119.705 365.821 119.793L322.305 120.563C322.31 120.118 322.336 119.672 322.383 119.229C323.029 114.746 323.613 110.287 324.314 105.829C325.276 99.9115 325.048 93.8442 323.644 88.0278C321.714 80.0057 318.67 72.4229 315.408 64.9313C313.735 61.1026 311.392 58.2186 307.733 56.4948C300.392 52.9893 293.269 52.8402 286.403 57.7131C282.021 60.8042 279.506 64.8732 279.841 70.8483C280.207 77.4201 280.036 84.0168 280.207 90.6383C280.325 92.2437 280.107 93.8572 279.569 95.362C278.954 96.7957 278.012 97.9476 277.412 99.4393C276.872 100.6 276.277 101.731 275.63 102.829C274.431 105.174 273.224 107.495 271.948 109.782C268.234 116.586 264.716 123.539 260.107 129.746C258.263 132.232 256.285 134.594 254.3 136.972C254.199 137.156 254.059 137.313 253.892 137.432C253.726 137.55 253.536 137.627 253.337 137.655C253.138 137.684 252.936 137.664 252.746 137.598C252.555 137.531 252.381 137.419 252.237 137.271C250.295 135.804 247.944 135.08 245.566 135.215C228.508 135.486 211.46 135.762 194.422 136.044C187.611 136.168 182.839 141.779 183.399 149.03C183.929 155.66 184.543 162.29 185.127 168.92C185.633 174.919 186.077 180.953 186.638 186.953C187.276 194.179 187.976 201.372 188.646 208.59C189.121 213.497 189.487 218.394 189.985 223.3C190.153 224.018 190.415 224.707 190.763 225.347L190.094 225.438C190.429 227.999 190.374 230.668 191.238 232.988C193.83 239.85 198.859 240.952 204.526 240.355C204.635 240.355 204.69 239.999 204.806 239.792C205.535 240.069 206.294 240.25 207.064 240.331C220.601 240.123 234.17 239.916 247.683 239.643C249.737 239.688 251.756 239.068 253.47 237.863C255.185 236.658 256.514 234.926 257.282 232.897C257.898 231.198 258.385 229.45 258.737 227.668C259.346 227.941 259.941 228.248 260.52 228.588C262.279 229.69 264.07 230.85 265.712 232.068C266.069 232.325 266.444 232.552 266.833 232.748C267.629 233.028 268.451 233.217 269.285 233.311C270.23 233.549 271.195 233.679 272.166 233.701C282.823 233.585 293.464 233.378 304.129 233.195C317.191 232.955 330.308 232.781 343.433 232.449L347.644 232.367C349.569 232.298 351.452 231.748 353.14 230.759C356.071 228.938 358.836 226.83 361.399 224.461C367.627 218.659 370.414 211.474 368.405 202.591C368.364 201.83 368.582 201.08 369.02 200.477C370.055 198.82 371.254 197.27 372.29 195.571C372.539 195.19 372.375 194.502 372.375 193.972C373.403 194.593 373.294 193.491 373.457 193.052C374.951 188.84 375.177 184.238 374.103 179.884C374.042 179.539 374.047 179.185 374.12 178.843C374.192 178.5 374.329 178.178 374.524 177.895C379.724 171.977 381.032 165.083 379.335 157.326ZM245.146 227.999C231.219 228.231 217.316 228.438 203.382 228.737C201.825 228.795 201.35 228.289 201.21 226.69C200.618 218.958 199.949 211.267 199.225 203.535C198.641 196.765 197.917 189.986 197.326 183.215C196.827 177.356 196.376 171.563 195.878 165.737C195.426 160.417 194.982 155.096 194.453 149.776C194.282 148.293 194.757 147.969 196.103 147.969C207.624 147.787 219.099 147.58 230.628 147.373C234.52 147.315 238.412 147.257 242.351 147.282C242.611 147.243 242.877 147.263 243.129 147.34C243.576 147.546 243.956 147.889 244.219 148.326C245.095 149.347 245.653 150.633 245.815 152.005C245.834 152.429 245.899 152.849 246.01 153.257C246.088 153.613 246.173 153.911 246.228 154.293C246.343 155.518 246.362 156.752 246.282 157.98L247.349 225.646C247.349 227.933 247.349 227.933 245.146 227.999ZM374.158 142.052C373.52 145.972 371.34 148.558 368.296 150.522C367.627 150.969 366.872 151.293 366.202 151.773C364.778 152.809 364.645 153.82 365.922 155.038C369.472 158.602 371.145 165.588 366.148 170.403C364.55 171.898 362.809 173.212 360.955 174.323C359.142 175.425 358.916 176.585 360.566 177.919C361.396 178.543 362.094 179.343 362.618 180.269C363.142 181.194 363.48 182.226 363.61 183.298C363.719 184.127 363.945 184.997 364.108 185.784C363.244 191.486 359.757 194.784 355.094 197.046C353.28 197.875 353.116 198.795 354.595 200.138C356.265 201.54 357.451 203.493 357.966 205.69C358.978 210.115 357.024 213.148 354.23 215.941C353.646 216.538 353 217.01 352.416 217.599C349.792 220.085 346.803 220.988 343.23 220.988C327.902 221.079 312.606 221.436 297.255 221.734C296.749 221.734 296.251 221.875 295.745 221.908C295.239 221.941 294.6 221.759 294.071 221.759L285.306 221.908L280.9 221.999C279.589 222.16 278.264 222.13 276.961 221.908C276.703 221.866 276.44 221.866 276.182 221.908C275.298 222.096 274.404 222.227 273.505 222.298C272.691 222.279 271.887 222.108 271.13 221.792C269.643 221.092 268.213 220.261 266.857 219.306C265.549 218.477 264.288 217.549 262.964 216.82C262.459 216.474 261.868 216.298 261.267 216.314C259.422 216.256 257.577 216.256 255.709 216.372C254.588 216.43 254.254 216.016 254.254 214.822C254.254 208.292 254.059 201.72 253.981 195.182C253.755 181.301 253.561 167.453 253.312 153.605C253.312 152.005 253.561 150.994 255.063 150.19C260.847 147.19 264.949 142.226 268.686 136.79C273.611 129.549 278.089 121.975 282.091 114.116C282.924 112.508 283.788 110.934 284.629 109.326C286.668 105.373 288.708 101.42 290.716 97.4421C291.07 96.6325 291.251 95.7494 291.245 94.8565C291.235 94.4934 291.177 94.1337 291.074 93.7874C291.021 93.4227 290.995 93.0542 290.996 92.6852V89.9836C290.996 88.2018 290.996 86.4201 290.942 84.63L290.771 73.9312C290.716 72.713 290.716 71.445 290.693 70.2765C290.642 69.8335 290.698 69.384 290.856 68.9707C291.014 68.5573 291.269 68.1938 291.596 67.9147C295.558 64.1688 300.75 65.0307 304.44 67.7655C305.468 68.5362 305.833 70.318 306.448 71.6522C309.26 77.8603 311.539 84.3257 313.26 90.9698C314.513 95.9421 314.21 100.914 313.423 105.887C312.17 113.552 310.917 121.193 309.656 128.892C309.492 129.961 309.375 131.03 309.235 132.207C309.56 132.261 309.888 132.289 310.216 132.29C328.696 131.967 347.2 131.726 365.712 131.312C366.975 131.28 368.23 131.552 369.381 132.107C370.533 132.661 371.552 133.485 372.364 134.517C373.175 135.549 373.758 136.762 374.068 138.067C374.379 139.371 374.41 140.734 374.158 142.052Z" fill="url(#paint4_linear_659_7096)"/>
<path d="M245.044 230.344C231.117 230.585 217.214 230.792 203.288 231.09C201.731 231.148 201.248 230.643 201.108 229.035C200.524 221.311 199.855 213.612 199.123 205.889C198.539 199.11 197.815 192.339 197.224 185.56C196.726 179.709 196.282 173.917 195.776 168.091C195.332 162.77 194.881 157.45 194.351 152.129C194.188 150.646 194.663 150.315 196.002 150.315C207.53 150.141 218.997 149.933 230.526 149.726C234.418 149.66 238.31 149.602 242.257 149.635C242.517 149.587 242.784 149.607 243.035 149.693C243.48 149.899 243.859 150.239 244.125 150.671C245 151.697 245.557 152.984 245.721 154.359C245.74 154.783 245.805 155.203 245.916 155.61C246.006 155.951 246.079 156.297 246.134 156.646C246.256 157.871 246.277 159.105 246.196 160.334L247.255 227.999C247.27 230.262 247.27 230.262 245.044 230.344Z" fill="white"/>
<path d="M188.592 165.653C194.913 168.686 201.353 171.421 207.913 173.858C209.558 174.543 211.28 175 213.035 175.217C216.989 175.523 220.718 173.468 224.213 171.479C225.988 170.46 228.043 168.894 227.74 166.772C227.573 166.076 227.223 165.444 226.731 164.952C226.238 164.46 225.624 164.129 224.961 163.996C223.634 163.756 222.287 163.678 220.944 163.764C216.118 163.681 211.603 161.419 207.36 158.908C202.549 156.048 197.863 152.734 194.368 148.209C193.936 147.509 193.344 146.939 192.647 146.551C192.022 146.339 191.354 146.316 190.717 146.485C181.29 148.366 180.169 161.626 188.592 165.653Z" fill="url(#paint5_linear_659_7096)"/>
<path d="M374.462 143.858C373.815 147.778 371.644 150.364 368.6 152.328C367.93 152.767 367.175 153.099 366.506 153.571C365.081 154.615 364.949 155.626 366.226 156.844C369.775 160.408 371.449 167.394 366.451 172.209C364.851 173.701 363.111 175.015 361.259 176.129C359.445 177.231 359.22 178.383 360.87 179.725C361.7 180.347 362.399 181.147 362.922 182.073C363.445 182.999 363.78 184.032 363.906 185.104C364.023 185.933 364.241 186.761 364.412 187.59C363.548 193.3 360.06 196.598 355.397 198.852C353.584 199.681 353.412 200.609 354.891 201.943C356.562 203.35 357.75 205.305 358.27 207.504C359.274 211.93 357.32 214.963 354.533 217.756C353.942 218.352 353.303 218.825 352.712 219.413C350.088 221.899 347.107 222.794 343.534 222.794C328.206 222.885 312.91 223.242 297.559 223.54C297.053 223.54 296.555 223.689 296.049 223.722C295.494 223.641 294.935 223.591 294.375 223.573C291.44 223.631 288.536 223.656 285.61 223.722L281.196 223.805C279.888 223.973 278.565 223.945 277.265 223.722C277.007 223.676 276.744 223.676 276.486 223.722C275.599 223.908 274.702 224.036 273.8 224.104C273 224.082 272.21 223.911 271.465 223.598C269.972 222.895 268.541 222.049 267.191 221.07C265.876 220.242 264.623 219.322 263.299 218.584C262.788 218.247 262.196 218.071 261.594 218.079C259.757 218.021 257.912 218.021 256.044 218.137C254.923 218.203 254.588 217.78 254.588 216.595C254.588 210.057 254.394 203.493 254.308 196.955C254.09 183.076 253.867 169.217 253.639 155.377C253.639 153.77 253.888 152.759 255.398 151.963C261.174 148.955 265.284 143.991 269.021 138.554C273.947 131.316 278.422 123.742 282.418 115.881C283.259 114.281 284.123 112.698 284.963 111.099C286.995 107.146 289.035 103.193 291.043 99.2066C291.401 98.3984 291.582 97.5144 291.572 96.621C291.564 96.2583 291.509 95.8986 291.409 95.5519C291.353 95.1903 291.325 94.8245 291.323 94.458V91.7481C291.323 89.9663 291.323 88.1846 291.261 86.4028L291.098 75.704C291.043 74.4858 291.043 73.2178 291.012 72.0493C290.98 71.6061 291.054 71.1615 291.225 70.7562C291.396 70.3508 291.66 69.9977 291.993 69.7289C295.955 65.9831 301.147 66.8449 304.829 69.5797C305.865 70.3504 306.231 72.1405 306.838 73.4747C309.615 79.6806 311.861 86.1404 313.548 92.7757C314.809 97.7481 314.498 102.72 313.719 107.693C312.466 115.358 311.205 122.991 309.952 130.69C309.78 131.759 309.671 132.828 309.531 134.005C309.856 134.061 310.183 134.092 310.512 134.096C328.985 133.773 347.496 133.532 366 133.118C367.265 133.083 368.521 133.353 369.675 133.907C370.828 134.461 371.849 135.284 372.663 136.317C373.476 137.349 374.06 138.563 374.371 139.869C374.683 141.174 374.714 142.538 374.462 143.858Z" fill="white"/>
<path d="M188.497 142.184L213.587 157.772L218.763 170.078L180.456 154.009L188.497 142.184Z" fill="#BA816C"/>
<path d="M213.579 157.773C214.696 156.752 215.894 155.837 217.16 155.038C218.328 154.474 230.666 159.753 230.721 161.171C230.775 162.588 230.114 167.709 228.783 168.19C227.451 168.671 218.764 170.079 218.764 170.079C218.764 170.079 210.006 160.508 213.579 157.773Z" fill="#BA816C"/>
<path d="M213.432 96.4961C213.432 96.4961 203.133 100.64 200.369 107.966C197.606 115.292 174.26 148.755 178.767 154.507C181.048 157.416 186.178 159.777 186.178 159.777L201.225 149.758L198.01 146.443L212.887 124.01C212.887 124.01 217.176 102.363 213.432 96.4961Z" fill="#68E1FD"/>
<path d="M210.123 206.128C216.841 206.26 223.637 206.31 230.199 204.752C236.761 203.194 243.16 199.846 247.364 194.26L249.878 198.189C271.86 204.375 294.647 206.679 317.331 205.009C320.531 204.84 323.713 204.385 326.843 203.65C332.16 202.274 337.064 199.506 341.906 196.813L359.546 186.918C362.192 187.448 363.204 191.062 362.815 193.846C362.426 196.631 361.188 199.432 361.469 202.274C361.71 204.711 363.025 206.857 363.601 209.235C364.613 213.479 363.01 218.095 360.254 221.343C357.498 224.592 353.715 226.68 349.862 228.23C339.882 232.249 329.054 233.144 318.389 233.625C309.281 234.031 300.166 234.163 291.058 234.304C285.702 234.379 280.245 234.445 275.123 232.78C270.452 231.263 266.257 228.362 261.695 226.465C260.349 225.788 258.854 225.518 257.374 225.686C256.294 225.961 255.274 226.456 254.37 227.144C249.17 230.666 244.367 234.976 238.668 237.495C230.565 241.075 221.465 240.694 212.699 240.255C205.693 239.907 197.45 238.829 193.915 232.349C192.918 230.283 192.225 228.067 191.86 225.777C191.012 221.708 185.025 204.23 189.432 202.365C191.549 201.479 196.36 204.595 198.617 205.092C202.415 205.805 206.266 206.152 210.123 206.128Z" fill="url(#paint6_linear_659_7096)"/>
</g>
<defs>
<linearGradient id="paint0_linear_659_7096" x1="243.954" y1="106.208" x2="260.541" y2="230.069" gradientUnits="userSpaceOnUse">
<stop stop-color="#010101" stop-opacity="0"/>
<stop offset="0.95" stop-color="#010101" stop-opacity="0.44"/>
</linearGradient>
<linearGradient id="paint1_linear_659_7096" x1="241.385" y1="308.608" x2="242.276" y2="234.14" gradientUnits="userSpaceOnUse">
<stop stop-color="#010101" stop-opacity="0"/>
<stop offset="0.95" stop-color="#010101" stop-opacity="0.44"/>
</linearGradient>
<linearGradient id="paint2_linear_659_7096" x1="192.966" y1="363.71" x2="220.087" y2="363.71" gradientUnits="userSpaceOnUse">
<stop stop-color="#010101" stop-opacity="0"/>
<stop offset="0.95" stop-color="#010101" stop-opacity="0.44"/>
</linearGradient>
<linearGradient id="paint3_linear_659_7096" x1="252.805" y1="366.652" x2="281.53" y2="366.652" gradientUnits="userSpaceOnUse">
<stop stop-color="#010101" stop-opacity="0"/>
<stop offset="0.95" stop-color="#010101" stop-opacity="0.44"/>
</linearGradient>
<linearGradient id="paint4_linear_659_7096" x1="282.97" y1="271.134" x2="285.944" y2="-3.87388" gradientUnits="userSpaceOnUse">
<stop stop-color="white" stop-opacity="0"/>
<stop offset="0.15" stop-color="white" stop-opacity="0.22"/>
<stop offset="0.32" stop-color="white" stop-opacity="0.45"/>
<stop offset="0.48" stop-color="white" stop-opacity="0.65"/>
<stop offset="0.64" stop-color="white" stop-opacity="0.8"/>
<stop offset="0.78" stop-color="white" stop-opacity="0.91"/>
<stop offset="0.91" stop-color="white" stop-opacity="0.98"/>
<stop offset="1" stop-color="white"/>
</linearGradient>
<linearGradient id="paint5_linear_659_7096" x1="202.588" y1="182.269" x2="217.987" y2="79.6249" gradientUnits="userSpaceOnUse">
<stop stop-color="#010101" stop-opacity="0"/>
<stop offset="0.95" stop-color="#010101"/>
</linearGradient>
<linearGradient id="paint6_linear_659_7096" x1="276.968" y1="151.548" x2="268.958" y2="521.362" gradientUnits="userSpaceOnUse">
<stop stop-color="#010101" stop-opacity="0"/>
<stop offset="0.95" stop-color="#010101" stop-opacity="0.44"/>
</linearGradient>
<clipPath id="clip0_659_7096">
<rect width="506" height="406" fill="white"/>
</clipPath>
</defs>
</svg>
