<svg width="322" height="280" viewBox="0 0 322 280" fill="none" xmlns="http://www.w3.org/2000/svg">
<rect width="322" height="280" rx="16" fill="white"/>
<circle cx="40" cy="72" r="24" fill="#012063"/>
<path d="M42.0736 84V80.192H31.8656V76.592L39.2416 60.96H43.6416L36.2656 76.592H42.0736V70.592H45.9776V76.592H48.1376V80.192H45.9776V84H42.0736Z" fill="#EAF1FF"/>
<path d="M22.2342 130.24C21.0822 130.24 20.0955 129.989 19.2742 129.488C18.4529 128.981 17.8209 128.277 17.3782 127.376C16.9409 126.475 16.7222 125.429 16.7222 124.24C16.7222 123.051 16.9409 122.005 17.3782 121.104C17.8209 120.203 18.4529 119.501 19.2742 119C20.0955 118.493 21.0822 118.24 22.2342 118.24C23.5622 118.24 24.6689 118.573 25.5542 119.24C26.4395 119.901 27.0609 120.795 27.4182 121.92L25.4742 122.456C25.2502 121.704 24.8689 121.117 24.3302 120.696C23.7915 120.269 23.0929 120.056 22.2342 120.056C21.4609 120.056 20.8155 120.229 20.2982 120.576C19.7862 120.923 19.3995 121.411 19.1382 122.04C18.8822 122.664 18.7515 123.397 18.7462 124.24C18.7462 125.083 18.8742 125.819 19.1302 126.448C19.3915 127.072 19.7809 127.557 20.2982 127.904C20.8155 128.251 21.4609 128.424 22.2342 128.424C23.0929 128.424 23.7915 128.211 24.3302 127.784C24.8689 127.357 25.2502 126.771 25.4742 126.024L27.4182 126.56C27.0609 127.685 26.4395 128.581 25.5542 129.248C24.6689 129.909 23.5622 130.24 22.2342 130.24ZM32.9907 130.24C32.1267 130.24 31.372 130.045 30.7267 129.656C30.0814 129.267 29.58 128.731 29.2227 128.048C28.8707 127.36 28.6947 126.571 28.6947 125.68C28.6947 124.773 28.876 123.979 29.2387 123.296C29.6014 122.613 30.1054 122.08 30.7507 121.696C31.396 121.312 32.1427 121.12 32.9907 121.12C33.86 121.12 34.6174 121.315 35.2627 121.704C35.908 122.093 36.4094 122.632 36.7667 123.32C37.124 124.003 37.3027 124.789 37.3027 125.68C37.3027 126.576 37.1214 127.368 36.7587 128.056C36.4014 128.739 35.9 129.275 35.2547 129.664C34.6094 130.048 33.8547 130.24 32.9907 130.24ZM32.9907 128.432C33.7587 128.432 34.3294 128.176 34.7027 127.664C35.076 127.152 35.2627 126.491 35.2627 125.68C35.2627 124.843 35.0734 124.176 34.6947 123.68C34.316 123.179 33.748 122.928 32.9907 122.928C32.4734 122.928 32.0467 123.045 31.7107 123.28C31.38 123.509 31.1347 123.832 30.9747 124.248C30.8147 124.659 30.7347 125.136 30.7347 125.68C30.7347 126.517 30.924 127.187 31.3027 127.688C31.6867 128.184 32.2494 128.432 32.9907 128.432ZM42.1982 130.24C41.1315 130.24 40.2649 130 39.5982 129.52C38.9315 129.04 38.5262 128.365 38.3822 127.496L40.3502 127.192C40.4515 127.619 40.6755 127.955 41.0222 128.2C41.3689 128.445 41.8062 128.568 42.3342 128.568C42.7982 128.568 43.1555 128.477 43.4062 128.296C43.6622 128.109 43.7902 127.856 43.7902 127.536C43.7902 127.339 43.7422 127.181 43.6462 127.064C43.5555 126.941 43.3529 126.824 43.0382 126.712C42.7235 126.6 42.2409 126.459 41.5902 126.288C40.8649 126.096 40.2889 125.891 39.8622 125.672C39.4355 125.448 39.1289 125.184 38.9422 124.88C38.7555 124.576 38.6622 124.208 38.6622 123.776C38.6622 123.237 38.8035 122.768 39.0862 122.368C39.3689 121.968 39.7635 121.661 40.2702 121.448C40.7769 121.229 41.3742 121.12 42.0622 121.12C42.7342 121.12 43.3289 121.224 43.8462 121.432C44.3689 121.64 44.7902 121.936 45.1102 122.32C45.4302 122.704 45.6275 123.155 45.7022 123.672L43.7342 124.024C43.6862 123.656 43.5182 123.365 43.2302 123.152C42.9475 122.939 42.5689 122.819 42.0942 122.792C41.6409 122.765 41.2755 122.835 40.9982 123C40.7209 123.16 40.5822 123.387 40.5822 123.68C40.5822 123.845 40.6382 123.987 40.7502 124.104C40.8622 124.221 41.0862 124.339 41.4222 124.456C41.7635 124.573 42.2702 124.717 42.9422 124.888C43.6302 125.064 44.1795 125.267 44.5902 125.496C45.0062 125.72 45.3049 125.989 45.4862 126.304C45.6729 126.619 45.7662 127 45.7662 127.448C45.7662 128.317 45.4489 129 44.8142 129.496C44.1849 129.992 43.3129 130.24 42.1982 130.24ZM52.5824 130C52.0118 130.107 51.4518 130.152 50.9024 130.136C50.3584 130.125 49.8704 130.027 49.4384 129.84C49.0064 129.648 48.6784 129.347 48.4544 128.936C48.2571 128.563 48.1531 128.181 48.1424 127.792C48.1318 127.403 48.1264 126.963 48.1264 126.472V118.96H50.0464V126.36C50.0464 126.707 50.0491 127.011 50.0544 127.272C50.0651 127.533 50.1211 127.747 50.2224 127.912C50.4144 128.232 50.7211 128.411 51.1424 128.448C51.5638 128.485 52.0438 128.464 52.5824 128.384V130ZM46.5584 122.872V121.36H52.5824V122.872H46.5584ZM54.2803 125.712V124.2H59.0803V125.712H54.2803ZM65.0871 130.24C64.2124 130.24 63.4444 130.051 62.7831 129.672C62.1217 129.293 61.6044 128.768 61.2311 128.096C60.8631 127.424 60.6791 126.651 60.6791 125.776C60.6791 124.832 60.8604 124.013 61.2231 123.32C61.5857 122.621 62.0897 122.08 62.7351 121.696C63.3804 121.312 64.1271 121.12 64.9751 121.12C65.8711 121.12 66.6311 121.331 67.2551 121.752C67.8844 122.168 68.3511 122.757 68.6551 123.52C68.9591 124.283 69.0737 125.181 68.9991 126.216H67.0871V125.512C67.0817 124.573 66.9164 123.888 66.5911 123.456C66.2657 123.024 65.7537 122.808 65.0551 122.808C64.2657 122.808 63.6791 123.053 63.2951 123.544C62.9111 124.029 62.7191 124.741 62.7191 125.68C62.7191 126.555 62.9111 127.232 63.2951 127.712C63.6791 128.192 64.2391 128.432 64.9751 128.432C65.4497 128.432 65.8577 128.328 66.1991 128.12C66.5457 127.907 66.8124 127.6 66.9991 127.2L68.9031 127.776C68.5724 128.555 68.0604 129.16 67.3671 129.592C66.6791 130.024 65.9191 130.24 65.0871 130.24ZM62.1111 126.216V124.76H68.0551V126.216H62.1111ZM71.5361 130V121.224C71.5361 121.005 71.5441 120.765 71.5601 120.504C71.5761 120.237 71.6214 119.973 71.6961 119.712C71.7707 119.451 71.9067 119.213 72.1041 119C72.3494 118.728 72.6134 118.541 72.8961 118.44C73.1841 118.333 73.4667 118.275 73.7441 118.264C74.0214 118.248 74.2641 118.24 74.4721 118.24H75.5521V119.808H74.5521C74.1841 119.808 73.9094 119.901 73.7281 120.088C73.5521 120.269 73.4641 120.509 73.4641 120.808V130H71.5361ZM70.1441 122.872V121.36H75.5521V122.872H70.1441ZM76.9201 130V121.224C76.9201 121.005 76.9281 120.765 76.9441 120.504C76.9601 120.237 77.0054 119.973 77.0801 119.712C77.1547 119.451 77.2907 119.213 77.4881 119C77.7334 118.728 77.9974 118.541 78.2801 118.44C78.5681 118.333 78.8507 118.275 79.1281 118.264C79.4054 118.248 79.6481 118.24 79.8561 118.24H80.9361V119.808H79.9361C79.5681 119.808 79.2934 119.901 79.1121 120.088C78.9361 120.269 78.8481 120.509 78.8481 120.808V130H76.9201ZM75.5281 122.872V121.36H80.9361V122.872H75.5281ZM85.8371 130.24C84.9624 130.24 84.1944 130.051 83.5331 129.672C82.8717 129.293 82.3544 128.768 81.9811 128.096C81.6131 127.424 81.4291 126.651 81.4291 125.776C81.4291 124.832 81.6104 124.013 81.9731 123.32C82.3357 122.621 82.8397 122.08 83.4851 121.696C84.1304 121.312 84.8771 121.12 85.7251 121.12C86.6211 121.12 87.3811 121.331 88.0051 121.752C88.6344 122.168 89.1011 122.757 89.4051 123.52C89.7091 124.283 89.8237 125.181 89.7491 126.216H87.8371V125.512C87.8317 124.573 87.6664 123.888 87.3411 123.456C87.0157 123.024 86.5037 122.808 85.8051 122.808C85.0157 122.808 84.4291 123.053 84.0451 123.544C83.6611 124.029 83.4691 124.741 83.4691 125.68C83.4691 126.555 83.6611 127.232 84.0451 127.712C84.4291 128.192 84.9891 128.432 85.7251 128.432C86.1997 128.432 86.6077 128.328 86.9491 128.12C87.2957 127.907 87.5624 127.6 87.7491 127.2L89.6531 127.776C89.3224 128.555 88.8104 129.16 88.1171 129.592C87.4291 130.024 86.6691 130.24 85.8371 130.24ZM82.8611 126.216V124.76H88.8051V126.216H82.8611ZM95.2861 130.24C94.3954 130.24 93.6354 130.043 93.0061 129.648C92.3767 129.248 91.8941 128.704 91.5581 128.016C91.2274 127.328 91.0594 126.549 91.0541 125.68C91.0594 124.795 91.2327 124.011 91.5741 123.328C91.9207 122.64 92.4114 122.101 93.0461 121.712C93.6807 121.317 94.4354 121.12 95.3101 121.12C96.2914 121.12 97.1207 121.368 97.7981 121.864C98.4807 122.355 98.9261 123.027 99.1341 123.88L97.2141 124.4C97.0647 123.936 96.8167 123.576 96.4701 123.32C96.1234 123.059 95.7287 122.928 95.2861 122.928C94.7847 122.928 94.3714 123.048 94.0461 123.288C93.7207 123.523 93.4807 123.848 93.3261 124.264C93.1714 124.68 93.0941 125.152 93.0941 125.68C93.0941 126.501 93.2781 127.165 93.6461 127.672C94.0141 128.179 94.5607 128.432 95.2861 128.432C95.7981 128.432 96.2007 128.315 96.4941 128.08C96.7927 127.845 97.0167 127.507 97.1661 127.064L99.1341 127.504C98.8674 128.384 98.4007 129.061 97.7341 129.536C97.0674 130.005 96.2514 130.24 95.2861 130.24ZM105.801 130C105.231 130.107 104.671 130.152 104.121 130.136C103.577 130.125 103.089 130.027 102.657 129.84C102.225 129.648 101.897 129.347 101.673 128.936C101.476 128.563 101.372 128.181 101.361 127.792C101.351 127.403 101.345 126.963 101.345 126.472V118.96H103.265V126.36C103.265 126.707 103.268 127.011 103.273 127.272C103.284 127.533 103.34 127.747 103.441 127.912C103.633 128.232 103.94 128.411 104.361 128.448C104.783 128.485 105.263 128.464 105.801 128.384V130ZM99.7772 122.872V121.36H105.801V122.872H99.7772ZM107.819 120.048V118.28H109.747V120.048H107.819ZM107.819 130V121.36H109.747V130H107.819ZM114.479 130L111.343 121.36H113.271L115.447 127.624L117.615 121.36H119.551L116.415 130H114.479ZM124.603 130.24C123.728 130.24 122.96 130.051 122.299 129.672C121.637 129.293 121.12 128.768 120.747 128.096C120.379 127.424 120.195 126.651 120.195 125.776C120.195 124.832 120.376 124.013 120.739 123.32C121.101 122.621 121.605 122.08 122.251 121.696C122.896 121.312 123.643 121.12 124.491 121.12C125.387 121.12 126.147 121.331 126.771 121.752C127.4 122.168 127.867 122.757 128.171 123.52C128.475 124.283 128.589 125.181 128.515 126.216H126.603V125.512C126.597 124.573 126.432 123.888 126.107 123.456C125.781 123.024 125.269 122.808 124.571 122.808C123.781 122.808 123.195 123.053 122.811 123.544C122.427 124.029 122.235 124.741 122.235 125.68C122.235 126.555 122.427 127.232 122.811 127.712C123.195 128.192 123.755 128.432 124.491 128.432C124.965 128.432 125.373 128.328 125.715 128.12C126.061 127.907 126.328 127.6 126.515 127.2L128.419 127.776C128.088 128.555 127.576 129.16 126.883 129.592C126.195 130.024 125.435 130.24 124.603 130.24ZM121.627 126.216V124.76H127.571V126.216H121.627ZM136.041 130V125.84C136.041 125.568 136.023 125.267 135.985 124.936C135.948 124.605 135.86 124.288 135.721 123.984C135.588 123.675 135.385 123.421 135.113 123.224C134.847 123.027 134.484 122.928 134.025 122.928C133.78 122.928 133.537 122.968 133.297 123.048C133.057 123.128 132.839 123.267 132.641 123.464C132.449 123.656 132.295 123.923 132.177 124.264C132.06 124.6 132.001 125.032 132.001 125.56L130.857 125.072C130.857 124.336 130.999 123.669 131.281 123.072C131.569 122.475 131.991 122 132.545 121.648C133.1 121.291 133.783 121.112 134.593 121.112C135.233 121.112 135.761 121.219 136.177 121.432C136.593 121.645 136.924 121.917 137.169 122.248C137.415 122.579 137.596 122.931 137.713 123.304C137.831 123.677 137.905 124.032 137.937 124.368C137.975 124.699 137.993 124.968 137.993 125.176V130H136.041ZM130.049 130V121.36H131.769V124.04H132.001V130H130.049ZM143.868 130.24C142.994 130.24 142.226 130.051 141.564 129.672C140.903 129.293 140.386 128.768 140.012 128.096C139.644 127.424 139.46 126.651 139.46 125.776C139.46 124.832 139.642 124.013 140.004 123.32C140.367 122.621 140.871 122.08 141.516 121.696C142.162 121.312 142.908 121.12 143.756 121.12C144.652 121.12 145.412 121.331 146.036 121.752C146.666 122.168 147.132 122.757 147.436 123.52C147.74 124.283 147.855 125.181 147.78 126.216H145.868V125.512C145.863 124.573 145.698 123.888 145.372 123.456C145.047 123.024 144.535 122.808 143.836 122.808C143.047 122.808 142.46 123.053 142.076 123.544C141.692 124.029 141.5 124.741 141.5 125.68C141.5 126.555 141.692 127.232 142.076 127.712C142.46 128.192 143.02 128.432 143.756 128.432C144.231 128.432 144.639 128.328 144.98 128.12C145.327 127.907 145.594 127.6 145.78 127.2L147.684 127.776C147.354 128.555 146.842 129.16 146.148 129.592C145.46 130.024 144.7 130.24 143.868 130.24ZM140.892 126.216V124.76H146.836V126.216H140.892ZM152.901 130.24C151.835 130.24 150.968 130 150.301 129.52C149.635 129.04 149.229 128.365 149.085 127.496L151.053 127.192C151.155 127.619 151.379 127.955 151.725 128.2C152.072 128.445 152.509 128.568 153.037 128.568C153.501 128.568 153.859 128.477 154.109 128.296C154.365 128.109 154.493 127.856 154.493 127.536C154.493 127.339 154.445 127.181 154.349 127.064C154.259 126.941 154.056 126.824 153.741 126.712C153.427 126.6 152.944 126.459 152.293 126.288C151.568 126.096 150.992 125.891 150.565 125.672C150.139 125.448 149.832 125.184 149.645 124.88C149.459 124.576 149.365 124.208 149.365 123.776C149.365 123.237 149.507 122.768 149.789 122.368C150.072 121.968 150.467 121.661 150.973 121.448C151.48 121.229 152.077 121.12 152.765 121.12C153.437 121.12 154.032 121.224 154.549 121.432C155.072 121.64 155.493 121.936 155.813 122.32C156.133 122.704 156.331 123.155 156.405 123.672L154.437 124.024C154.389 123.656 154.221 123.365 153.933 123.152C153.651 122.939 153.272 122.819 152.797 122.792C152.344 122.765 151.979 122.835 151.701 123C151.424 123.16 151.285 123.387 151.285 123.68C151.285 123.845 151.341 123.987 151.453 124.104C151.565 124.221 151.789 124.339 152.125 124.456C152.467 124.573 152.973 124.717 153.645 124.888C154.333 125.064 154.883 125.267 155.293 125.496C155.709 125.72 156.008 125.989 156.189 126.304C156.376 126.619 156.469 127 156.469 127.448C156.469 128.317 156.152 129 155.517 129.496C154.888 129.992 154.016 130.24 152.901 130.24ZM161.558 130.24C160.491 130.24 159.624 130 158.958 129.52C158.291 129.04 157.886 128.365 157.742 127.496L159.71 127.192C159.811 127.619 160.035 127.955 160.382 128.2C160.728 128.445 161.166 128.568 161.694 128.568C162.158 128.568 162.515 128.477 162.766 128.296C163.022 128.109 163.15 127.856 163.15 127.536C163.15 127.339 163.102 127.181 163.006 127.064C162.915 126.941 162.712 126.824 162.398 126.712C162.083 126.6 161.6 126.459 160.95 126.288C160.224 126.096 159.648 125.891 159.222 125.672C158.795 125.448 158.488 125.184 158.302 124.88C158.115 124.576 158.022 124.208 158.022 123.776C158.022 123.237 158.163 122.768 158.446 122.368C158.728 121.968 159.123 121.661 159.63 121.448C160.136 121.229 160.734 121.12 161.422 121.12C162.094 121.12 162.688 121.224 163.206 121.432C163.728 121.64 164.15 121.936 164.47 122.32C164.79 122.704 164.987 123.155 165.062 123.672L163.094 124.024C163.046 123.656 162.878 123.365 162.59 123.152C162.307 122.939 161.928 122.819 161.454 122.792C161 122.765 160.635 122.835 160.358 123C160.08 123.16 159.942 123.387 159.942 123.68C159.942 123.845 159.998 123.987 160.11 124.104C160.222 124.221 160.446 124.339 160.782 124.456C161.123 124.573 161.63 124.717 162.302 124.888C162.99 125.064 163.539 125.267 163.95 125.496C164.366 125.72 164.664 125.989 164.846 126.304C165.032 126.619 165.126 127 165.126 127.448C165.126 128.317 164.808 129 164.174 129.496C163.544 129.992 162.672 130.24 161.558 130.24Z" fill="#012063"/>
<path d="M20.711 160.21C19.9737 160.21 19.3087 160.082 18.716 159.825C18.128 159.568 17.6427 159.202 17.26 158.726C16.882 158.245 16.6417 157.676 16.539 157.018L18.289 156.752C18.4383 157.349 18.744 157.811 19.206 158.138C19.6727 158.465 20.2093 158.628 20.816 158.628C21.1753 158.628 21.5137 158.572 21.831 158.46C22.1483 158.348 22.405 158.185 22.601 157.97C22.8017 157.755 22.902 157.492 22.902 157.179C22.902 157.039 22.8787 156.911 22.832 156.794C22.7853 156.673 22.7153 156.565 22.622 156.472C22.5333 156.379 22.4167 156.295 22.272 156.22C22.132 156.141 21.9687 156.073 21.782 156.017L19.178 155.247C18.954 155.182 18.7113 155.095 18.45 154.988C18.1933 154.876 17.9483 154.724 17.715 154.533C17.4863 154.337 17.2973 154.09 17.148 153.791C17.0033 153.488 16.931 153.114 16.931 152.671C16.931 152.022 17.0943 151.479 17.421 151.04C17.7523 150.597 18.1957 150.265 18.751 150.046C19.311 149.827 19.9317 149.719 20.613 149.724C21.3037 149.729 21.9197 149.848 22.461 150.081C23.0023 150.31 23.455 150.643 23.819 151.082C24.183 151.521 24.4397 152.05 24.589 152.671L22.776 152.986C22.7013 152.631 22.5567 152.33 22.342 152.083C22.132 151.831 21.873 151.64 21.565 151.509C21.2617 151.378 20.9373 151.308 20.592 151.299C20.256 151.294 19.9433 151.346 19.654 151.453C19.3693 151.556 19.1383 151.705 18.961 151.901C18.7883 152.097 18.702 152.326 18.702 152.587C18.702 152.834 18.7767 153.037 18.926 153.196C19.0753 153.35 19.2597 153.474 19.479 153.567C19.703 153.656 19.9293 153.73 20.158 153.791L21.964 154.295C22.2113 154.36 22.489 154.449 22.797 154.561C23.105 154.673 23.4013 154.829 23.686 155.03C23.9707 155.231 24.204 155.494 24.386 155.821C24.5727 156.148 24.666 156.563 24.666 157.067C24.666 157.59 24.5563 158.049 24.337 158.446C24.1223 158.838 23.8307 159.165 23.462 159.426C23.0933 159.687 22.671 159.883 22.195 160.014C21.7237 160.145 21.229 160.21 20.711 160.21ZM27.7912 160L25.4812 152.426L27.1332 152.44L28.6102 157.291L30.1082 152.44H31.5292L33.0202 157.291L34.5042 152.44H36.1562L33.8462 160H32.5302L30.8152 154.799L29.1072 160H27.7912ZM37.5595 151.292V149.745H39.2465V151.292H37.5595ZM37.5595 160V152.44H39.2465V160H37.5595ZM42.0013 160V152.321C42.0013 152.13 42.0083 151.92 42.0223 151.691C42.0363 151.458 42.0759 151.227 42.1413 150.998C42.2066 150.769 42.3256 150.562 42.4983 150.375C42.7129 150.137 42.9439 149.974 43.1913 149.885C43.4433 149.792 43.6906 149.74 43.9333 149.731C44.1759 149.717 44.3883 149.71 44.5703 149.71H45.5153V151.082H44.6403C44.3183 151.082 44.0779 151.164 43.9193 151.327C43.7653 151.486 43.6883 151.696 43.6883 151.957V160H42.0013ZM40.7833 153.763V152.44H45.5153V153.763H40.7833ZM51.0653 160C50.566 160.093 50.076 160.133 49.5953 160.119C49.1193 160.11 48.6923 160.023 48.3143 159.86C47.9363 159.692 47.6493 159.428 47.4533 159.069C47.2806 158.742 47.1896 158.409 47.1803 158.068C47.171 157.727 47.1663 157.342 47.1663 156.913V150.34H48.8463V156.815C48.8463 157.118 48.8486 157.384 48.8533 157.613C48.8626 157.842 48.9116 158.028 49.0003 158.173C49.1683 158.453 49.4366 158.609 49.8053 158.642C50.174 158.675 50.594 158.656 51.0653 158.586V160ZM45.7943 153.763V152.44H51.0653V153.763H45.7943ZM52.6909 160V149.92H56.8559C56.9539 149.92 57.0799 149.925 57.2339 149.934C57.3879 149.939 57.5303 149.953 57.6609 149.976C58.2443 150.065 58.7249 150.258 59.1029 150.557C59.4856 150.856 59.7679 151.234 59.9499 151.691C60.1366 152.144 60.2299 152.648 60.2299 153.203C60.2299 153.754 60.1366 154.258 59.9499 154.715C59.7633 155.168 59.4786 155.543 59.0959 155.842C58.7179 156.141 58.2396 156.334 57.6609 156.423C57.5303 156.442 57.3856 156.456 57.2269 156.465C57.0729 156.474 56.9493 156.479 56.8559 156.479H54.3779V160H52.6909ZM54.3779 154.904H56.7859C56.8793 154.904 56.9843 154.899 57.1009 154.89C57.2176 154.881 57.3249 154.862 57.4229 154.834C57.7029 154.764 57.9223 154.64 58.0809 154.463C58.2443 154.286 58.3586 154.085 58.4239 153.861C58.4939 153.637 58.5289 153.418 58.5289 153.203C58.5289 152.988 58.4939 152.769 58.4239 152.545C58.3586 152.316 58.2443 152.113 58.0809 151.936C57.9223 151.759 57.7029 151.635 57.4229 151.565C57.3249 151.537 57.2176 151.521 57.1009 151.516C56.9843 151.507 56.8793 151.502 56.7859 151.502H54.3779V154.904ZM63.5549 160.21C63.0089 160.21 62.5469 160.107 62.1689 159.902C61.7909 159.692 61.5039 159.414 61.3079 159.069C61.1166 158.724 61.0209 158.343 61.0209 157.928C61.0209 157.564 61.0816 157.237 61.2029 156.948C61.3243 156.654 61.5109 156.402 61.7629 156.192C62.0149 155.977 62.3416 155.802 62.7429 155.667C63.0463 155.569 63.4009 155.48 63.8069 155.401C64.2176 155.322 64.6609 155.249 65.1369 155.184C65.6176 155.114 66.1193 155.039 66.6419 154.96L66.0399 155.303C66.0446 154.78 65.9279 154.395 65.6899 154.148C65.4519 153.901 65.0506 153.777 64.4859 153.777C64.1453 153.777 63.8163 153.856 63.4989 154.015C63.1816 154.174 62.9599 154.447 62.8339 154.834L61.2939 154.351C61.4806 153.712 61.8353 153.198 62.3579 152.811C62.8853 152.424 63.5946 152.23 64.4859 152.23C65.1579 152.23 65.7483 152.34 66.2569 152.559C66.7703 152.778 67.1506 153.138 67.3979 153.637C67.5333 153.903 67.6149 154.176 67.6429 154.456C67.6709 154.731 67.6849 155.032 67.6849 155.359V160H66.2079V158.362L66.4529 158.628C66.1123 159.174 65.7133 159.575 65.2559 159.832C64.8033 160.084 64.2363 160.21 63.5549 160.21ZM63.8909 158.866C64.2736 158.866 64.6003 158.798 64.8709 158.663C65.1416 158.528 65.3563 158.362 65.5149 158.166C65.6783 157.97 65.7879 157.786 65.8439 157.613C65.9326 157.398 65.9816 157.153 65.9909 156.878C66.0049 156.598 66.0119 156.372 66.0119 156.199L66.5299 156.353C66.0213 156.432 65.5849 156.502 65.2209 156.563C64.8569 156.624 64.5443 156.682 64.2829 156.738C64.0216 156.789 63.7906 156.848 63.5899 156.913C63.3939 156.983 63.2283 157.065 63.0929 157.158C62.9576 157.251 62.8526 157.359 62.7779 157.48C62.7079 157.601 62.6729 157.744 62.6729 157.907C62.6729 158.094 62.7196 158.259 62.8129 158.404C62.9063 158.544 63.0416 158.656 63.2189 158.74C63.4009 158.824 63.6249 158.866 63.8909 158.866ZM70.0775 163.36L71.5335 159.363L71.5615 160.539L68.2645 152.44H70.0215L72.3595 158.432H71.9115L74.1865 152.44H75.8735L71.6595 163.36H70.0775ZM85.1032 160V156.213C85.1032 155.854 85.0706 155.508 85.0052 155.177C84.9446 154.846 84.8349 154.549 84.6762 154.288C84.5222 154.022 84.3122 153.812 84.0462 153.658C83.7849 153.504 83.4536 153.427 83.0522 153.427C82.7396 153.427 82.4549 153.481 82.1982 153.588C81.9462 153.691 81.7292 153.849 81.5472 154.064C81.3652 154.279 81.2229 154.549 81.1202 154.876C81.0222 155.198 80.9732 155.578 80.9732 156.017L80.1542 155.765C80.1542 155.032 80.2849 154.405 80.5462 153.882C80.8122 153.355 81.1832 152.951 81.6592 152.671C82.1399 152.386 82.7046 152.244 83.3532 152.244C83.8432 152.244 84.2609 152.321 84.6062 152.475C84.9516 152.629 85.2386 152.834 85.4672 153.091C85.6959 153.343 85.8756 153.628 86.0062 153.945C86.1369 154.258 86.2279 154.577 86.2792 154.904C86.3352 155.226 86.3632 155.532 86.3632 155.821V160H85.1032ZM79.7132 160V149.92H80.8332V155.485H80.9732V160H79.7132ZM90.3321 160.21C89.7675 160.21 89.2938 160.107 88.9111 159.902C88.5331 159.692 88.2461 159.417 88.0501 159.076C87.8588 158.735 87.7631 158.362 87.7631 157.956C87.7631 157.559 87.8378 157.216 87.9871 156.927C88.1411 156.633 88.3558 156.39 88.6311 156.199C88.9065 156.003 89.2355 155.849 89.6181 155.737C89.9775 155.639 90.3788 155.555 90.8221 155.485C91.2701 155.41 91.7228 155.343 92.1801 155.282C92.6375 155.221 93.0645 155.163 93.4611 155.107L93.0131 155.366C93.0271 154.694 92.8918 154.197 92.6071 153.875C92.3271 153.553 91.8418 153.392 91.1511 153.392C90.6938 153.392 90.2925 153.497 89.9471 153.707C89.6065 153.912 89.3661 154.248 89.2261 154.715L88.0431 154.358C88.2251 153.695 88.5775 153.175 89.1001 152.797C89.6228 152.419 90.3111 152.23 91.1651 152.23C91.8511 152.23 92.4391 152.354 92.9291 152.601C93.4238 152.844 93.7785 153.212 93.9931 153.707C94.1005 153.94 94.1681 154.195 94.1961 154.47C94.2241 154.741 94.2381 155.025 94.2381 155.324V160H93.1321V158.187L93.3911 158.355C93.1065 158.966 92.7075 159.428 92.1941 159.741C91.6855 160.054 91.0648 160.21 90.3321 160.21ZM90.5211 159.167C90.9691 159.167 91.3565 159.088 91.6831 158.929C92.0145 158.766 92.2805 158.553 92.4811 158.292C92.6818 158.026 92.8125 157.737 92.8731 157.424C92.9431 157.191 92.9805 156.932 92.9851 156.647C92.9945 156.358 92.9991 156.136 92.9991 155.982L93.4331 156.171C93.0271 156.227 92.6281 156.281 92.2361 156.332C91.8441 156.383 91.4731 156.439 91.1231 156.5C90.7731 156.556 90.4581 156.624 90.1781 156.703C89.9728 156.768 89.7791 156.852 89.5971 156.955C89.4198 157.058 89.2751 157.191 89.1631 157.354C89.0558 157.513 89.0021 157.711 89.0021 157.949C89.0021 158.154 89.0535 158.35 89.1561 158.537C89.2635 158.724 89.4268 158.875 89.6461 158.992C89.8701 159.109 90.1618 159.167 90.5211 159.167ZM97.8287 160L95.0847 152.44H96.3447L98.4657 158.411L100.58 152.44H101.847L99.1027 160H97.8287ZM106.115 160.21C105.373 160.21 104.725 160.047 104.169 159.72C103.619 159.389 103.189 158.929 102.881 158.341C102.573 157.748 102.419 157.058 102.419 156.269C102.419 155.443 102.571 154.729 102.874 154.127C103.178 153.52 103.6 153.054 104.141 152.727C104.687 152.396 105.327 152.23 106.059 152.23C106.82 152.23 107.466 152.405 107.998 152.755C108.535 153.105 108.936 153.604 109.202 154.253C109.473 154.902 109.59 155.674 109.552 156.57H108.292V156.122C108.278 155.193 108.089 154.5 107.725 154.043C107.361 153.581 106.82 153.35 106.101 153.35C105.331 153.35 104.746 153.597 104.344 154.092C103.943 154.587 103.742 155.296 103.742 156.22C103.742 157.111 103.943 157.802 104.344 158.292C104.746 158.782 105.317 159.027 106.059 159.027C106.559 159.027 106.993 158.913 107.361 158.684C107.73 158.455 108.019 158.126 108.229 157.697L109.426 158.11C109.132 158.777 108.689 159.295 108.096 159.664C107.508 160.028 106.848 160.21 106.115 160.21ZM103.322 156.57V155.569H108.908V156.57H103.322ZM114.054 160V149.71H115.3V160H114.054ZM120.62 160.21C119.869 160.21 119.22 160.04 118.674 159.699C118.133 159.358 117.715 158.887 117.421 158.285C117.127 157.683 116.98 156.992 116.98 156.213C116.98 155.42 117.129 154.724 117.428 154.127C117.727 153.53 118.149 153.065 118.695 152.734C119.241 152.398 119.883 152.23 120.62 152.23C121.376 152.23 122.027 152.4 122.573 152.741C123.119 153.077 123.537 153.546 123.826 154.148C124.12 154.745 124.267 155.434 124.267 156.213C124.267 157.002 124.12 157.697 123.826 158.299C123.532 158.896 123.112 159.365 122.566 159.706C122.02 160.042 121.371 160.21 120.62 160.21ZM120.62 159.027C121.404 159.027 121.987 158.766 122.37 158.243C122.753 157.72 122.944 157.044 122.944 156.213C122.944 155.359 122.75 154.68 122.363 154.176C121.976 153.667 121.395 153.413 120.62 153.413C120.093 153.413 119.659 153.532 119.318 153.77C118.977 154.008 118.723 154.337 118.555 154.757C118.387 155.177 118.303 155.662 118.303 156.213C118.303 157.062 118.499 157.744 118.891 158.257C119.283 158.77 119.859 159.027 120.62 159.027ZM127.145 160L124.835 152.433L126.074 152.44L127.761 157.97L129.462 152.44H130.561L132.255 157.97L133.949 152.44H135.181L132.871 160H131.835L130.008 154.253L128.181 160H127.145ZM139.447 160.21C138.705 160.21 138.057 160.047 137.501 159.72C136.951 159.389 136.521 158.929 136.213 158.341C135.905 157.748 135.751 157.058 135.751 156.269C135.751 155.443 135.903 154.729 136.206 154.127C136.51 153.52 136.932 153.054 137.473 152.727C138.019 152.396 138.659 152.23 139.391 152.23C140.152 152.23 140.798 152.405 141.33 152.755C141.867 153.105 142.268 153.604 142.534 154.253C142.805 154.902 142.922 155.674 142.884 156.57H141.624V156.122C141.61 155.193 141.421 154.5 141.057 154.043C140.693 153.581 140.152 153.35 139.433 153.35C138.663 153.35 138.078 153.597 137.676 154.092C137.275 154.587 137.074 155.296 137.074 156.22C137.074 157.111 137.275 157.802 137.676 158.292C138.078 158.782 138.649 159.027 139.391 159.027C139.891 159.027 140.325 158.913 140.693 158.684C141.062 158.455 141.351 158.126 141.561 157.697L142.758 158.11C142.464 158.777 142.021 159.295 141.428 159.664C140.84 160.028 140.18 160.21 139.447 160.21ZM136.654 156.57V155.569H142.24V156.57H136.654ZM144.443 160V152.44H145.556V154.267L145.374 154.029C145.463 153.796 145.577 153.581 145.717 153.385C145.862 153.189 146.023 153.028 146.2 152.902C146.396 152.743 146.618 152.622 146.865 152.538C147.112 152.454 147.364 152.405 147.621 152.391C147.878 152.372 148.118 152.389 148.342 152.44V153.609C148.081 153.539 147.794 153.52 147.481 153.553C147.168 153.586 146.879 153.7 146.613 153.896C146.37 154.069 146.181 154.279 146.046 154.526C145.915 154.773 145.824 155.042 145.773 155.331C145.722 155.616 145.696 155.907 145.696 156.206V160H144.443ZM153.189 160V152.027C153.189 151.831 153.199 151.633 153.217 151.432C153.236 151.227 153.278 151.028 153.343 150.837C153.409 150.641 153.516 150.461 153.665 150.298C153.838 150.107 154.027 149.971 154.232 149.892C154.438 149.808 154.645 149.757 154.855 149.738C155.07 149.719 155.273 149.71 155.464 149.71H156.423V150.746H155.534C155.166 150.746 154.89 150.837 154.708 151.019C154.526 151.196 154.435 151.467 154.435 151.831V160H153.189ZM151.908 153.469V152.44H156.423V153.469H151.908ZM160.543 160.21C159.801 160.21 159.152 160.047 158.597 159.72C158.046 159.389 157.617 158.929 157.309 158.341C157.001 157.748 156.847 157.058 156.847 156.269C156.847 155.443 156.999 154.729 157.302 154.127C157.605 153.52 158.028 153.054 158.569 152.727C159.115 152.396 159.754 152.23 160.487 152.23C161.248 152.23 161.894 152.405 162.426 152.755C162.963 153.105 163.364 153.604 163.63 154.253C163.901 154.902 164.017 155.674 163.98 156.57H162.72V156.122C162.706 155.193 162.517 154.5 162.153 154.043C161.789 153.581 161.248 153.35 160.529 153.35C159.759 153.35 159.173 153.597 158.772 154.092C158.371 154.587 158.17 155.296 158.17 156.22C158.17 157.111 158.371 157.802 158.772 158.292C159.173 158.782 159.745 159.027 160.487 159.027C160.986 159.027 161.42 158.913 161.789 158.684C162.158 158.455 162.447 158.126 162.657 157.697L163.854 158.11C163.56 158.777 163.117 159.295 162.524 159.664C161.936 160.028 161.276 160.21 160.543 160.21ZM157.75 156.57V155.569H163.336V156.57H157.75ZM168.815 160.21C168.073 160.21 167.424 160.047 166.869 159.72C166.318 159.389 165.889 158.929 165.581 158.341C165.273 157.748 165.119 157.058 165.119 156.269C165.119 155.443 165.27 154.729 165.574 154.127C165.877 153.52 166.299 153.054 166.841 152.727C167.387 152.396 168.026 152.23 168.759 152.23C169.519 152.23 170.166 152.405 170.698 152.755C171.234 153.105 171.636 153.604 171.902 154.253C172.172 154.902 172.289 155.674 172.252 156.57H170.992V156.122C170.978 155.193 170.789 154.5 170.425 154.043C170.061 153.581 169.519 153.35 168.801 153.35C168.031 153.35 167.445 153.597 167.044 154.092C166.642 154.587 166.442 155.296 166.442 156.22C166.442 157.111 166.642 157.802 167.044 158.292C167.445 158.782 168.017 159.027 168.759 159.027C169.258 159.027 169.692 158.913 170.061 158.684C170.429 158.455 170.719 158.126 170.929 157.697L172.126 158.11C171.832 158.777 171.388 159.295 170.796 159.664C170.208 160.028 169.547 160.21 168.815 160.21ZM166.022 156.57V155.569H171.608V156.57H166.022ZM176.666 160.203C175.765 160.203 175.026 160.007 174.447 159.615C173.873 159.218 173.521 158.665 173.39 157.956L174.664 157.753C174.767 158.164 175.002 158.49 175.371 158.733C175.74 158.971 176.197 159.09 176.743 159.09C177.261 159.09 177.667 158.983 177.961 158.768C178.255 158.553 178.402 158.262 178.402 157.893C178.402 157.678 178.353 157.506 178.255 157.375C178.157 157.24 177.954 157.114 177.646 156.997C177.343 156.88 176.883 156.74 176.267 156.577C175.6 156.4 175.075 156.215 174.692 156.024C174.309 155.833 174.036 155.611 173.873 155.359C173.71 155.107 173.628 154.801 173.628 154.442C173.628 153.999 173.749 153.611 173.992 153.28C174.235 152.944 174.573 152.685 175.007 152.503C175.446 152.321 175.954 152.23 176.533 152.23C177.107 152.23 177.62 152.321 178.073 152.503C178.526 152.685 178.89 152.944 179.165 153.28C179.445 153.611 179.611 153.999 179.662 154.442L178.388 154.673C178.327 154.267 178.131 153.947 177.8 153.714C177.473 153.481 177.051 153.357 176.533 153.343C176.043 153.324 175.644 153.411 175.336 153.602C175.033 153.793 174.881 154.052 174.881 154.379C174.881 154.561 174.937 154.717 175.049 154.848C175.166 154.979 175.378 155.102 175.686 155.219C175.999 155.336 176.451 155.469 177.044 155.618C177.711 155.786 178.236 155.97 178.619 156.171C179.006 156.367 179.282 156.6 179.445 156.871C179.608 157.137 179.69 157.466 179.69 157.858C179.69 158.586 179.422 159.16 178.885 159.58C178.348 159.995 177.609 160.203 176.666 160.203ZM188.258 160C187.81 160.089 187.366 160.124 186.928 160.105C186.494 160.091 186.106 160.005 185.766 159.846C185.425 159.683 185.166 159.431 184.989 159.09C184.839 158.791 184.758 158.49 184.744 158.187C184.734 157.879 184.73 157.531 184.73 157.144V150.34H185.976V157.088C185.976 157.396 185.978 157.66 185.983 157.879C185.992 158.098 186.041 158.287 186.13 158.446C186.298 158.745 186.564 158.92 186.928 158.971C187.296 159.022 187.74 159.008 188.258 158.929V160ZM183.197 153.469V152.44H188.258V153.469H183.197ZM195.176 160V156.213C195.176 155.854 195.143 155.508 195.078 155.177C195.017 154.846 194.907 154.549 194.749 154.288C194.595 154.022 194.385 153.812 194.119 153.658C193.857 153.504 193.526 153.427 193.125 153.427C192.812 153.427 192.527 153.481 192.271 153.588C192.019 153.691 191.802 153.849 191.62 154.064C191.438 154.279 191.295 154.549 191.193 154.876C191.095 155.198 191.046 155.578 191.046 156.017L190.227 155.765C190.227 155.032 190.357 154.405 190.619 153.882C190.885 153.355 191.256 152.951 191.732 152.671C192.212 152.386 192.777 152.244 193.426 152.244C193.916 152.244 194.333 152.321 194.679 152.475C195.024 152.629 195.311 152.834 195.54 153.091C195.768 153.343 195.948 153.628 196.079 153.945C196.209 154.258 196.3 154.577 196.352 154.904C196.408 155.226 196.436 155.532 196.436 155.821V160H195.176ZM189.786 160V149.92H190.906V155.485H191.046V160H189.786ZM200.404 160.21C199.84 160.21 199.366 160.107 198.983 159.902C198.605 159.692 198.318 159.417 198.122 159.076C197.931 158.735 197.835 158.362 197.835 157.956C197.835 157.559 197.91 157.216 198.059 156.927C198.213 156.633 198.428 156.39 198.703 156.199C198.979 156.003 199.308 155.849 199.69 155.737C200.05 155.639 200.451 155.555 200.894 155.485C201.342 155.41 201.795 155.343 202.252 155.282C202.71 155.221 203.137 155.163 203.533 155.107L203.085 155.366C203.099 154.694 202.964 154.197 202.679 153.875C202.399 153.553 201.914 153.392 201.223 153.392C200.766 153.392 200.365 153.497 200.019 153.707C199.679 153.912 199.438 154.248 199.298 154.715L198.115 154.358C198.297 153.695 198.65 153.175 199.172 152.797C199.695 152.419 200.383 152.23 201.237 152.23C201.923 152.23 202.511 152.354 203.001 152.601C203.496 152.844 203.851 153.212 204.065 153.707C204.173 153.94 204.24 154.195 204.268 154.47C204.296 154.741 204.31 155.025 204.31 155.324V160H203.204V158.187L203.463 158.355C203.179 158.966 202.78 159.428 202.266 159.741C201.758 160.054 201.137 160.21 200.404 160.21ZM200.593 159.167C201.041 159.167 201.429 159.088 201.755 158.929C202.087 158.766 202.353 158.553 202.553 158.292C202.754 158.026 202.885 157.737 202.945 157.424C203.015 157.191 203.053 156.932 203.057 156.647C203.067 156.358 203.071 156.136 203.071 155.982L203.505 156.171C203.099 156.227 202.7 156.281 202.308 156.332C201.916 156.383 201.545 156.439 201.195 156.5C200.845 156.556 200.53 156.624 200.25 156.703C200.045 156.768 199.851 156.852 199.669 156.955C199.492 157.058 199.347 157.191 199.235 157.354C199.128 157.513 199.074 157.711 199.074 157.949C199.074 158.154 199.126 158.35 199.228 158.537C199.336 158.724 199.499 158.875 199.718 158.992C199.942 159.109 200.234 159.167 200.593 159.167ZM211.513 160V156.213C211.513 155.854 211.481 155.508 211.415 155.177C211.355 154.846 211.245 154.549 211.086 154.288C210.932 154.022 210.722 153.812 210.456 153.658C210.195 153.504 209.864 153.427 209.462 153.427C209.15 153.427 208.865 153.481 208.608 153.588C208.356 153.691 208.139 153.849 207.957 154.064C207.775 154.279 207.633 154.549 207.53 154.876C207.432 155.198 207.383 155.578 207.383 156.017L206.564 155.765C206.564 155.032 206.695 154.405 206.956 153.882C207.222 153.355 207.593 152.951 208.069 152.671C208.55 152.386 209.115 152.244 209.763 152.244C210.253 152.244 210.671 152.321 211.016 152.475C211.362 152.629 211.649 152.834 211.877 153.091C212.106 153.343 212.286 153.628 212.416 153.945C212.547 154.258 212.638 154.577 212.689 154.904C212.745 155.226 212.773 155.532 212.773 155.821V160H211.513ZM206.123 160V152.44H207.243V154.463H207.383V160H206.123ZM221.617 160C221.169 160.089 220.726 160.124 220.287 160.105C219.853 160.091 219.466 160.005 219.125 159.846C218.784 159.683 218.525 159.431 218.348 159.09C218.199 158.791 218.117 158.49 218.103 158.187C218.094 157.879 218.089 157.531 218.089 157.144V150.34H219.335V157.088C219.335 157.396 219.337 157.66 219.342 157.879C219.351 158.098 219.4 158.287 219.489 158.446C219.657 158.745 219.923 158.92 220.287 158.971C220.656 159.022 221.099 159.008 221.617 158.929V160ZM216.556 153.469V152.44H221.617V153.469H216.556ZM223.152 160V152.44H224.265V154.267L224.083 154.029C224.172 153.796 224.286 153.581 224.426 153.385C224.571 153.189 224.732 153.028 224.909 152.902C225.105 152.743 225.327 152.622 225.574 152.538C225.821 152.454 226.073 152.405 226.33 152.391C226.587 152.372 226.827 152.389 227.051 152.44V153.609C226.79 153.539 226.503 153.52 226.19 153.553C225.877 153.586 225.588 153.7 225.322 153.896C225.079 154.069 224.89 154.279 224.755 154.526C224.624 154.773 224.533 155.042 224.482 155.331C224.431 155.616 224.405 155.907 224.405 156.206V160H223.152ZM230.277 160.21C229.713 160.21 229.239 160.107 228.856 159.902C228.478 159.692 228.191 159.417 227.995 159.076C227.804 158.735 227.708 158.362 227.708 157.956C227.708 157.559 227.783 157.216 227.932 156.927C228.086 156.633 228.301 156.39 228.576 156.199C228.852 156.003 229.181 155.849 229.563 155.737C229.923 155.639 230.324 155.555 230.767 155.485C231.215 155.41 231.668 155.343 232.125 155.282C232.583 155.221 233.01 155.163 233.406 155.107L232.958 155.366C232.972 154.694 232.837 154.197 232.552 153.875C232.272 153.553 231.787 153.392 231.096 153.392C230.639 153.392 230.238 153.497 229.892 153.707C229.552 153.912 229.311 154.248 229.171 154.715L227.988 154.358C228.17 153.695 228.523 153.175 229.045 152.797C229.568 152.419 230.256 152.23 231.11 152.23C231.796 152.23 232.384 152.354 232.874 152.601C233.369 152.844 233.724 153.212 233.938 153.707C234.046 153.94 234.113 154.195 234.141 154.47C234.169 154.741 234.183 155.025 234.183 155.324V160H233.077V158.187L233.336 158.355C233.052 158.966 232.653 159.428 232.139 159.741C231.631 160.054 231.01 160.21 230.277 160.21ZM230.466 159.167C230.914 159.167 231.302 159.088 231.628 158.929C231.96 158.766 232.226 158.553 232.426 158.292C232.627 158.026 232.758 157.737 232.818 157.424C232.888 157.191 232.926 156.932 232.93 156.647C232.94 156.358 232.944 156.136 232.944 155.982L233.378 156.171C232.972 156.227 232.573 156.281 232.181 156.332C231.789 156.383 231.418 156.439 231.068 156.5C230.718 156.556 230.403 156.624 230.123 156.703C229.918 156.768 229.724 156.852 229.542 156.955C229.365 157.058 229.22 157.191 229.108 157.354C229.001 157.513 228.947 157.711 228.947 157.949C228.947 158.154 228.999 158.35 229.101 158.537C229.209 158.724 229.372 158.875 229.591 158.992C229.815 159.109 230.107 159.167 230.466 159.167ZM238.971 160.21C238.267 160.21 237.662 160.035 237.158 159.685C236.654 159.33 236.265 158.852 235.989 158.25C235.719 157.648 235.583 156.969 235.583 156.213C235.583 155.457 235.719 154.778 235.989 154.176C236.265 153.574 236.654 153.1 237.158 152.755C237.662 152.405 238.264 152.23 238.964 152.23C239.678 152.23 240.278 152.403 240.763 152.748C241.249 153.093 241.615 153.567 241.862 154.169C242.114 154.771 242.24 155.452 242.24 156.213C242.24 156.964 242.114 157.643 241.862 158.25C241.615 158.852 241.249 159.33 240.763 159.685C240.278 160.035 239.681 160.21 238.971 160.21ZM239.125 159.069C239.634 159.069 240.052 158.948 240.378 158.705C240.705 158.458 240.945 158.119 241.099 157.69C241.258 157.256 241.337 156.764 241.337 156.213C241.337 155.653 241.258 155.161 241.099 154.736C240.945 154.307 240.707 153.973 240.385 153.735C240.063 153.492 239.655 153.371 239.16 153.371C238.647 153.371 238.222 153.497 237.886 153.749C237.555 154.001 237.308 154.342 237.144 154.771C236.986 155.2 236.906 155.681 236.906 156.213C236.906 156.75 236.988 157.235 237.151 157.669C237.315 158.098 237.56 158.439 237.886 158.691C238.218 158.943 238.631 159.069 239.125 159.069ZM241.337 160V154.435H241.197V149.92H242.45V160H241.337ZM244.552 151.103V149.815H245.798V151.103H244.552ZM244.552 160V152.44H245.798V160H244.552ZM252.119 160C251.671 160.089 251.228 160.124 250.789 160.105C250.355 160.091 249.968 160.005 249.627 159.846C249.286 159.683 249.027 159.431 248.85 159.09C248.701 158.791 248.619 158.49 248.605 158.187C248.596 157.879 248.591 157.531 248.591 157.144V150.34H249.837V157.088C249.837 157.396 249.839 157.66 249.844 157.879C249.853 158.098 249.902 158.287 249.991 158.446C250.159 158.745 250.425 158.92 250.789 158.971C251.158 159.022 251.601 159.008 252.119 158.929V160ZM247.058 153.469V152.44H252.119V153.469H247.058ZM253.794 151.103V149.815H255.04V151.103H253.794ZM253.794 160V152.44H255.04V160H253.794ZM260.36 160.21C259.609 160.21 258.96 160.04 258.414 159.699C257.873 159.358 257.455 158.887 257.161 158.285C256.867 157.683 256.72 156.992 256.72 156.213C256.72 155.42 256.869 154.724 257.168 154.127C257.467 153.53 257.889 153.065 258.435 152.734C258.981 152.398 259.623 152.23 260.36 152.23C261.116 152.23 261.767 152.4 262.313 152.741C262.859 153.077 263.277 153.546 263.566 154.148C263.86 154.745 264.007 155.434 264.007 156.213C264.007 157.002 263.86 157.697 263.566 158.299C263.272 158.896 262.852 159.365 262.306 159.706C261.76 160.042 261.111 160.21 260.36 160.21ZM260.36 159.027C261.144 159.027 261.727 158.766 262.11 158.243C262.493 157.72 262.684 157.044 262.684 156.213C262.684 155.359 262.49 154.68 262.103 154.176C261.716 153.667 261.135 153.413 260.36 153.413C259.833 153.413 259.399 153.532 259.058 153.77C258.717 154.008 258.463 154.337 258.295 154.757C258.127 155.177 258.043 155.662 258.043 156.213C258.043 157.062 258.239 157.744 258.631 158.257C259.023 158.77 259.599 159.027 260.36 159.027ZM270.931 160V156.213C270.931 155.854 270.899 155.508 270.833 155.177C270.773 154.846 270.663 154.549 270.504 154.288C270.35 154.022 270.14 153.812 269.874 153.658C269.613 153.504 269.282 153.427 268.88 153.427C268.568 153.427 268.283 153.481 268.026 153.588C267.774 153.691 267.557 153.849 267.375 154.064C267.193 154.279 267.051 154.549 266.948 154.876C266.85 155.198 266.801 155.578 266.801 156.017L265.982 155.765C265.982 155.032 266.113 154.405 266.374 153.882C266.64 153.355 267.011 152.951 267.487 152.671C267.968 152.386 268.533 152.244 269.181 152.244C269.671 152.244 270.089 152.321 270.434 152.475C270.78 152.629 271.067 152.834 271.295 153.091C271.524 153.343 271.704 153.628 271.834 153.945C271.965 154.258 272.056 154.577 272.107 154.904C272.163 155.226 272.191 155.532 272.191 155.821V160H270.931ZM265.541 160V152.44H266.661V154.463H266.801V160H265.541ZM276.16 160.21C275.596 160.21 275.122 160.107 274.739 159.902C274.361 159.692 274.074 159.417 273.878 159.076C273.687 158.735 273.591 158.362 273.591 157.956C273.591 157.559 273.666 157.216 273.815 156.927C273.969 156.633 274.184 156.39 274.459 156.199C274.735 156.003 275.064 155.849 275.446 155.737C275.806 155.639 276.207 155.555 276.65 155.485C277.098 155.41 277.551 155.343 278.008 155.282C278.466 155.221 278.893 155.163 279.289 155.107L278.841 155.366C278.855 154.694 278.72 154.197 278.435 153.875C278.155 153.553 277.67 153.392 276.979 153.392C276.522 153.392 276.121 153.497 275.775 153.707C275.435 153.912 275.194 154.248 275.054 154.715L273.871 154.358C274.053 153.695 274.406 153.175 274.928 152.797C275.451 152.419 276.139 152.23 276.993 152.23C277.679 152.23 278.267 152.354 278.757 152.601C279.252 152.844 279.607 153.212 279.821 153.707C279.929 153.94 279.996 154.195 280.024 154.47C280.052 154.741 280.066 155.025 280.066 155.324V160H278.96V158.187L279.219 158.355C278.935 158.966 278.536 159.428 278.022 159.741C277.514 160.054 276.893 160.21 276.16 160.21ZM276.349 159.167C276.797 159.167 277.185 159.088 277.511 158.929C277.843 158.766 278.109 158.553 278.309 158.292C278.51 158.026 278.641 157.737 278.701 157.424C278.771 157.191 278.809 156.932 278.813 156.647C278.823 156.358 278.827 156.136 278.827 155.982L279.261 156.171C278.855 156.227 278.456 156.281 278.064 156.332C277.672 156.383 277.301 156.439 276.951 156.5C276.601 156.556 276.286 156.624 276.006 156.703C275.801 156.768 275.607 156.852 275.425 156.955C275.248 157.058 275.103 157.191 274.991 157.354C274.884 157.513 274.83 157.711 274.83 157.949C274.83 158.154 274.882 158.35 274.984 158.537C275.092 158.724 275.255 158.875 275.474 158.992C275.698 159.109 275.99 159.167 276.349 159.167ZM282.026 160V149.71H283.272V160H282.026ZM20.452 182.21C19.7427 182.21 19.1453 182.035 18.66 181.685C18.1747 181.33 17.806 180.852 17.554 180.25C17.3067 179.643 17.183 178.964 17.183 178.213C17.183 177.452 17.3067 176.771 17.554 176.169C17.806 175.567 18.1747 175.093 18.66 174.748C19.15 174.403 19.7497 174.23 20.459 174.23C21.159 174.23 21.761 174.405 22.265 174.755C22.7737 175.1 23.1633 175.574 23.434 176.176C23.7047 176.778 23.84 177.457 23.84 178.213C23.84 178.969 23.7047 179.648 23.434 180.25C23.1633 180.852 22.7737 181.33 22.265 181.685C21.761 182.035 21.1567 182.21 20.452 182.21ZM16.973 182V171.92H18.226V176.435H18.086V182H16.973ZM20.298 181.069C20.7973 181.069 21.2103 180.943 21.537 180.691C21.8637 180.439 22.1087 180.098 22.272 179.669C22.4353 179.235 22.517 178.75 22.517 178.213C22.517 177.681 22.4353 177.2 22.272 176.771C22.1133 176.342 21.866 176.001 21.53 175.749C21.1987 175.497 20.7763 175.371 20.263 175.371C19.773 175.371 19.367 175.492 19.045 175.735C18.723 175.973 18.4827 176.307 18.324 176.736C18.1653 177.161 18.086 177.653 18.086 178.213C18.086 178.764 18.163 179.256 18.317 179.69C18.4757 180.119 18.7183 180.458 19.045 180.705C19.3717 180.948 19.7893 181.069 20.298 181.069ZM27.5235 182.21C26.9589 182.21 26.4852 182.107 26.1025 181.902C25.7245 181.692 25.4375 181.417 25.2415 181.076C25.0502 180.735 24.9545 180.362 24.9545 179.956C24.9545 179.559 25.0292 179.216 25.1785 178.927C25.3325 178.633 25.5472 178.39 25.8225 178.199C26.0979 178.003 26.4269 177.849 26.8095 177.737C27.1689 177.639 27.5702 177.555 28.0135 177.485C28.4615 177.41 28.9142 177.343 29.3715 177.282C29.8289 177.221 30.2559 177.163 30.6525 177.107L30.2045 177.366C30.2185 176.694 30.0832 176.197 29.7985 175.875C29.5185 175.553 29.0332 175.392 28.3425 175.392C27.8852 175.392 27.4839 175.497 27.1385 175.707C26.7979 175.912 26.5575 176.248 26.4175 176.715L25.2345 176.358C25.4165 175.695 25.7689 175.175 26.2915 174.797C26.8142 174.419 27.5025 174.23 28.3565 174.23C29.0425 174.23 29.6305 174.354 30.1205 174.601C30.6152 174.844 30.9699 175.212 31.1845 175.707C31.2919 175.94 31.3595 176.195 31.3875 176.47C31.4155 176.741 31.4295 177.025 31.4295 177.324V182H30.3235V180.187L30.5825 180.355C30.2979 180.966 29.8989 181.428 29.3855 181.741C28.8769 182.054 28.2562 182.21 27.5235 182.21ZM27.7125 181.167C28.1605 181.167 28.5479 181.088 28.8745 180.929C29.2059 180.766 29.4719 180.553 29.6725 180.292C29.8732 180.026 30.0039 179.737 30.0645 179.424C30.1345 179.191 30.1719 178.932 30.1765 178.647C30.1859 178.358 30.1905 178.136 30.1905 177.982L30.6245 178.171C30.2185 178.227 29.8195 178.281 29.4275 178.332C29.0355 178.383 28.6645 178.439 28.3145 178.5C27.9645 178.556 27.6495 178.624 27.3695 178.703C27.1642 178.768 26.9705 178.852 26.7885 178.955C26.6112 179.058 26.4665 179.191 26.3545 179.354C26.2472 179.513 26.1935 179.711 26.1935 179.949C26.1935 180.154 26.2449 180.35 26.3475 180.537C26.4549 180.724 26.6182 180.875 26.8375 180.992C27.0615 181.109 27.3532 181.167 27.7125 181.167ZM38.6325 182V178.213C38.6325 177.854 38.5999 177.508 38.5345 177.177C38.4739 176.846 38.3642 176.549 38.2055 176.288C38.0515 176.022 37.8415 175.812 37.5755 175.658C37.3142 175.504 36.9829 175.427 36.5815 175.427C36.2689 175.427 35.9842 175.481 35.7275 175.588C35.4755 175.691 35.2585 175.849 35.0765 176.064C34.8945 176.279 34.7522 176.549 34.6495 176.876C34.5515 177.198 34.5025 177.578 34.5025 178.017L33.6835 177.765C33.6835 177.032 33.8142 176.405 34.0755 175.882C34.3415 175.355 34.7125 174.951 35.1885 174.671C35.6692 174.386 36.2339 174.244 36.8825 174.244C37.3725 174.244 37.7902 174.321 38.1355 174.475C38.4809 174.629 38.7679 174.834 38.9965 175.091C39.2252 175.343 39.4049 175.628 39.5355 175.945C39.6662 176.258 39.7572 176.577 39.8085 176.904C39.8645 177.226 39.8925 177.532 39.8925 177.821V182H38.6325ZM33.2425 182V174.44H34.3625V176.463H34.5025V182H33.2425ZM41.7054 182L41.7124 171.92H42.9724V178.08L46.1434 174.44H47.7604L44.4214 178.22L48.1524 182H46.4094L42.9724 178.36V182H41.7054ZM48.9891 173.103V171.815H50.2351V173.103H48.9891ZM48.9891 182V174.44H50.2351V182H48.9891ZM57.7185 182V178.213C57.7185 177.854 57.6858 177.508 57.6205 177.177C57.5598 176.846 57.4501 176.549 57.2915 176.288C57.1375 176.022 56.9275 175.812 56.6615 175.658C56.4001 175.504 56.0688 175.427 55.6675 175.427C55.3548 175.427 55.0701 175.481 54.8135 175.588C54.5615 175.691 54.3445 175.849 54.1625 176.064C53.9805 176.279 53.8381 176.549 53.7355 176.876C53.6375 177.198 53.5885 177.578 53.5885 178.017L52.7695 177.765C52.7695 177.032 52.9001 176.405 53.1615 175.882C53.4275 175.355 53.7985 174.951 54.2745 174.671C54.7551 174.386 55.3198 174.244 55.9685 174.244C56.4585 174.244 56.8761 174.321 57.2215 174.475C57.5668 174.629 57.8538 174.834 58.0825 175.091C58.3111 175.343 58.4908 175.628 58.6215 175.945C58.7521 176.258 58.8431 176.577 58.8945 176.904C58.9505 177.226 58.9785 177.532 58.9785 177.821V182H57.7185ZM52.3285 182V174.44H53.4485V176.463H53.5885V182H52.3285ZM63.8574 185.57C63.4607 185.57 63.0734 185.509 62.6954 185.388C62.3174 185.267 61.9697 185.082 61.6524 184.835C61.3397 184.592 61.0784 184.284 60.8684 183.911L62.0094 183.309C62.196 183.678 62.4597 183.946 62.8004 184.114C63.1457 184.282 63.5004 184.366 63.8644 184.366C64.345 184.366 64.744 184.277 65.0614 184.1C65.3787 183.927 65.612 183.668 65.7614 183.323C65.9154 182.978 65.99 182.548 65.9854 182.035V179.97H66.1324V174.44H67.2384V182.049C67.2384 182.254 67.2314 182.453 67.2174 182.644C67.208 182.835 67.1847 183.024 67.1474 183.211C67.0494 183.748 66.8557 184.189 66.5664 184.534C66.277 184.884 65.9037 185.143 65.4464 185.311C64.989 185.484 64.4594 185.57 63.8574 185.57ZM63.7664 182.21C63.0617 182.21 62.4574 182.035 61.9534 181.685C61.4494 181.33 61.0597 180.852 60.7844 180.25C60.5137 179.648 60.3784 178.969 60.3784 178.213C60.3784 177.457 60.5137 176.778 60.7844 176.176C61.0597 175.574 61.4494 175.1 61.9534 174.755C62.4574 174.405 63.0594 174.23 63.7594 174.23C64.4734 174.23 65.073 174.403 65.5584 174.748C66.0437 175.093 66.41 175.567 66.6574 176.169C66.9094 176.771 67.0354 177.452 67.0354 178.213C67.0354 178.964 66.9094 179.643 66.6574 180.25C66.41 180.852 66.0437 181.33 65.5584 181.685C65.073 182.035 64.4757 182.21 63.7664 182.21ZM63.9204 181.069C64.429 181.069 64.8467 180.948 65.1734 180.705C65.5 180.458 65.7404 180.119 65.8944 179.69C66.053 179.256 66.1324 178.764 66.1324 178.213C66.1324 177.653 66.053 177.161 65.8944 176.736C65.7404 176.307 65.5024 175.973 65.1804 175.735C64.8584 175.492 64.45 175.371 63.9554 175.371C63.442 175.371 63.0174 175.497 62.6814 175.749C62.35 176.001 62.1027 176.342 61.9394 176.771C61.7807 177.2 61.7014 177.681 61.7014 178.213C61.7014 178.75 61.783 179.235 61.9464 179.669C62.1097 180.098 62.3547 180.439 62.6814 180.691C63.0127 180.943 63.4257 181.069 63.9204 181.069ZM72.1356 173.103V171.815H73.3816V173.103H72.1356ZM72.1356 182V174.44H73.3816V182H72.1356ZM80.865 182V178.213C80.865 177.854 80.8323 177.508 80.767 177.177C80.7063 176.846 80.5966 176.549 80.438 176.288C80.284 176.022 80.074 175.812 79.808 175.658C79.5466 175.504 79.2153 175.427 78.814 175.427C78.5013 175.427 78.2166 175.481 77.96 175.588C77.708 175.691 77.491 175.849 77.309 176.064C77.127 176.279 76.9846 176.549 76.882 176.876C76.784 177.198 76.735 177.578 76.735 178.017L75.916 177.765C75.916 177.032 76.0466 176.405 76.308 175.882C76.574 175.355 76.945 174.951 77.421 174.671C77.9016 174.386 78.4663 174.244 79.115 174.244C79.605 174.244 80.0226 174.321 80.368 174.475C80.7133 174.629 81.0003 174.834 81.229 175.091C81.4576 175.343 81.6373 175.628 81.768 175.945C81.8986 176.258 81.9896 176.577 82.041 176.904C82.097 177.226 82.125 177.532 82.125 177.821V182H80.865ZM75.475 182V174.44H76.595V176.463H76.735V182H75.475ZM86.8008 182.203C85.9002 182.203 85.1605 182.007 84.5818 181.615C84.0078 181.218 83.6555 180.665 83.5248 179.956L84.7988 179.753C84.9015 180.164 85.1372 180.49 85.5058 180.733C85.8745 180.971 86.3318 181.09 86.8778 181.09C87.3958 181.09 87.8018 180.983 88.0958 180.768C88.3898 180.553 88.5368 180.262 88.5368 179.893C88.5368 179.678 88.4878 179.506 88.3898 179.375C88.2918 179.24 88.0888 179.114 87.7808 178.997C87.4775 178.88 87.0178 178.74 86.4018 178.577C85.7345 178.4 85.2095 178.215 84.8268 178.024C84.4442 177.833 84.1712 177.611 84.0078 177.359C83.8445 177.107 83.7628 176.801 83.7628 176.442C83.7628 175.999 83.8842 175.611 84.1268 175.28C84.3695 174.944 84.7078 174.685 85.1418 174.503C85.5805 174.321 86.0892 174.23 86.6678 174.23C87.2418 174.23 87.7552 174.321 88.2078 174.503C88.6605 174.685 89.0245 174.944 89.2998 175.28C89.5798 175.611 89.7455 175.999 89.7968 176.442L88.5228 176.673C88.4622 176.267 88.2662 175.947 87.9348 175.714C87.6082 175.481 87.1858 175.357 86.6678 175.343C86.1778 175.324 85.7788 175.411 85.4708 175.602C85.1675 175.793 85.0158 176.052 85.0158 176.379C85.0158 176.561 85.0718 176.717 85.1838 176.848C85.3005 176.979 85.5128 177.102 85.8208 177.219C86.1335 177.336 86.5862 177.469 87.1788 177.618C87.8462 177.786 88.3712 177.97 88.7538 178.171C89.1412 178.367 89.4165 178.6 89.5798 178.871C89.7432 179.137 89.8248 179.466 89.8248 179.858C89.8248 180.586 89.5565 181.16 89.0198 181.58C88.4832 181.995 87.7435 182.203 86.8008 182.203ZM95.5897 182C95.1417 182.089 94.6983 182.124 94.2597 182.105C93.8257 182.091 93.4383 182.005 93.0977 181.846C92.757 181.683 92.498 181.431 92.3207 181.09C92.1713 180.791 92.0897 180.49 92.0757 180.187C92.0663 179.879 92.0617 179.531 92.0617 179.144V172.34H93.3077V179.088C93.3077 179.396 93.31 179.66 93.3147 179.879C93.324 180.098 93.373 180.287 93.4617 180.446C93.6297 180.745 93.8957 180.92 94.2597 180.971C94.6283 181.022 95.0717 181.008 95.5897 180.929V182ZM90.5287 175.469V174.44H95.5897V175.469H90.5287ZM97.2645 173.103V171.815H98.5105V173.103H97.2645ZM97.2645 182V174.44H98.5105V182H97.2645ZM104.832 182C104.384 182.089 103.941 182.124 103.502 182.105C103.068 182.091 102.681 182.005 102.34 181.846C101.999 181.683 101.74 181.431 101.563 181.09C101.414 180.791 101.332 180.49 101.318 180.187C101.309 179.879 101.304 179.531 101.304 179.144V172.34H102.55V179.088C102.55 179.396 102.552 179.66 102.557 179.879C102.566 180.098 102.615 180.287 102.704 180.446C102.872 180.745 103.138 180.92 103.502 180.971C103.871 181.022 104.314 181.008 104.832 180.929V182ZM99.7709 175.469V174.44H104.832V175.469H99.7709ZM109.237 182.196C108.751 182.196 108.334 182.119 107.984 181.965C107.638 181.811 107.351 181.606 107.123 181.349C106.894 181.092 106.714 180.808 106.584 180.495C106.453 180.182 106.36 179.863 106.304 179.536C106.252 179.209 106.227 178.904 106.227 178.619V174.44H107.487V178.227C107.487 178.582 107.519 178.925 107.585 179.256C107.65 179.587 107.76 179.886 107.914 180.152C108.072 180.418 108.282 180.628 108.544 180.782C108.81 180.936 109.141 181.013 109.538 181.013C109.85 181.013 110.135 180.959 110.392 180.852C110.648 180.745 110.868 180.586 111.05 180.376C111.232 180.161 111.372 179.891 111.47 179.564C111.568 179.237 111.617 178.857 111.617 178.423L112.436 178.675C112.436 179.403 112.303 180.031 112.037 180.558C111.775 181.085 111.404 181.491 110.924 181.776C110.448 182.056 109.885 182.196 109.237 182.196ZM111.757 182V179.977H111.617V174.44H112.87V182H111.757ZM119.051 182C118.603 182.089 118.159 182.124 117.721 182.105C117.287 182.091 116.899 182.005 116.559 181.846C116.218 181.683 115.959 181.431 115.782 181.09C115.632 180.791 115.551 180.49 115.537 180.187C115.527 179.879 115.523 179.531 115.523 179.144V172.34H116.769V179.088C116.769 179.396 116.771 179.66 116.776 179.879C116.785 180.098 116.834 180.287 116.923 180.446C117.091 180.745 117.357 180.92 117.721 180.971C118.089 181.022 118.533 181.008 119.051 180.929V182ZM113.99 175.469V174.44H119.051V175.469H113.99ZM120.725 173.103V171.815H121.971V173.103H120.725ZM120.725 182V174.44H121.971V182H120.725ZM127.292 182.21C126.54 182.21 125.892 182.04 125.346 181.699C124.804 181.358 124.387 180.887 124.093 180.285C123.799 179.683 123.652 178.992 123.652 178.213C123.652 177.42 123.801 176.724 124.1 176.127C124.398 175.53 124.821 175.065 125.367 174.734C125.913 174.398 126.554 174.23 127.292 174.23C128.048 174.23 128.699 174.4 129.245 174.741C129.791 175.077 130.208 175.546 130.498 176.148C130.792 176.745 130.939 177.434 130.939 178.213C130.939 179.002 130.792 179.697 130.498 180.299C130.204 180.896 129.784 181.365 129.238 181.706C128.692 182.042 128.043 182.21 127.292 182.21ZM127.292 181.027C128.076 181.027 128.659 180.766 129.042 180.243C129.424 179.72 129.616 179.044 129.616 178.213C129.616 177.359 129.422 176.68 129.035 176.176C128.647 175.667 128.066 175.413 127.292 175.413C126.764 175.413 126.33 175.532 125.99 175.77C125.649 176.008 125.395 176.337 125.227 176.757C125.059 177.177 124.975 177.662 124.975 178.213C124.975 179.062 125.171 179.744 125.563 180.257C125.955 180.77 126.531 181.027 127.292 181.027ZM137.863 182V178.213C137.863 177.854 137.83 177.508 137.765 177.177C137.704 176.846 137.595 176.549 137.436 176.288C137.282 176.022 137.072 175.812 136.806 175.658C136.545 175.504 136.213 175.427 135.812 175.427C135.499 175.427 135.215 175.481 134.958 175.588C134.706 175.691 134.489 175.849 134.307 176.064C134.125 176.279 133.983 176.549 133.88 176.876C133.782 177.198 133.733 177.578 133.733 178.017L132.914 177.765C132.914 177.032 133.045 176.405 133.306 175.882C133.572 175.355 133.943 174.951 134.419 174.671C134.9 174.386 135.464 174.244 136.113 174.244C136.603 174.244 137.021 174.321 137.366 174.475C137.711 174.629 137.998 174.834 138.227 175.091C138.456 175.343 138.635 175.628 138.766 175.945C138.897 176.258 138.988 176.577 139.039 176.904C139.095 177.226 139.123 177.532 139.123 177.821V182H137.863ZM132.473 182V174.44H133.593V176.463H133.733V182H132.473ZM143.799 182.203C142.898 182.203 142.159 182.007 141.58 181.615C141.006 181.218 140.654 180.665 140.523 179.956L141.797 179.753C141.9 180.164 142.135 180.49 142.504 180.733C142.873 180.971 143.33 181.09 143.876 181.09C144.394 181.09 144.8 180.983 145.094 180.768C145.388 180.553 145.535 180.262 145.535 179.893C145.535 179.678 145.486 179.506 145.388 179.375C145.29 179.24 145.087 179.114 144.779 178.997C144.476 178.88 144.016 178.74 143.4 178.577C142.733 178.4 142.208 178.215 141.825 178.024C141.442 177.833 141.169 177.611 141.006 177.359C140.843 177.107 140.761 176.801 140.761 176.442C140.761 175.999 140.882 175.611 141.125 175.28C141.368 174.944 141.706 174.685 142.14 174.503C142.579 174.321 143.087 174.23 143.666 174.23C144.24 174.23 144.753 174.321 145.206 174.503C145.659 174.685 146.023 174.944 146.298 175.28C146.578 175.611 146.744 175.999 146.795 176.442L145.521 176.673C145.46 176.267 145.264 175.947 144.933 175.714C144.606 175.481 144.184 175.357 143.666 175.343C143.176 175.324 142.777 175.411 142.469 175.602C142.166 175.793 142.014 176.052 142.014 176.379C142.014 176.561 142.07 176.717 142.182 176.848C142.299 176.979 142.511 177.102 142.819 177.219C143.132 177.336 143.584 177.469 144.177 177.618C144.844 177.786 145.369 177.97 145.752 178.171C146.139 178.367 146.415 178.6 146.578 178.871C146.741 179.137 146.823 179.466 146.823 179.858C146.823 180.586 146.555 181.16 146.018 181.58C145.481 181.995 144.742 182.203 143.799 182.203ZM148.227 183.568L148.304 182.987C148.5 183.001 148.647 182.964 148.745 182.875C148.843 182.786 148.906 182.665 148.934 182.511C148.962 182.357 148.966 182.187 148.948 182H148.227V180.418H149.599V182.21C149.599 182.7 149.477 183.069 149.235 183.316C148.997 183.563 148.661 183.647 148.227 183.568ZM156.676 182L154.366 174.433L155.605 174.44L157.292 179.97L158.993 174.44H160.092L161.786 179.97L163.48 174.44H164.712L162.402 182H161.366L159.539 176.253L157.712 182H156.676ZM171.359 182V178.213C171.359 177.854 171.326 177.508 171.261 177.177C171.2 176.846 171.091 176.549 170.932 176.288C170.778 176.022 170.568 175.812 170.302 175.658C170.041 175.504 169.709 175.427 169.308 175.427C168.995 175.427 168.711 175.481 168.454 175.588C168.202 175.691 167.985 175.849 167.803 176.064C167.621 176.279 167.479 176.549 167.376 176.876C167.278 177.198 167.229 177.578 167.229 178.017L166.41 177.765C166.41 177.032 166.541 176.405 166.802 175.882C167.068 175.355 167.439 174.951 167.915 174.671C168.396 174.386 168.96 174.244 169.609 174.244C170.099 174.244 170.517 174.321 170.862 174.475C171.207 174.629 171.494 174.834 171.723 175.091C171.952 175.343 172.131 175.628 172.262 175.945C172.393 176.258 172.484 176.577 172.535 176.904C172.591 177.226 172.619 177.532 172.619 177.821V182H171.359ZM165.969 182V171.92H167.089V177.485H167.229V182H165.969ZM174.579 173.103V171.815H175.825V173.103H174.579ZM174.579 182V174.44H175.825V182H174.579ZM181.11 182.21C180.345 182.21 179.694 182.04 179.157 181.699C178.625 181.354 178.219 180.88 177.939 180.278C177.659 179.676 177.515 178.99 177.505 178.22C177.515 177.431 177.662 176.738 177.946 176.141C178.236 175.539 178.649 175.07 179.185 174.734C179.722 174.398 180.368 174.23 181.124 174.23C181.922 174.23 182.608 174.426 183.182 174.818C183.761 175.21 184.148 175.747 184.344 176.428L183.112 176.799C182.954 176.36 182.695 176.02 182.335 175.777C181.981 175.534 181.572 175.413 181.11 175.413C180.592 175.413 180.165 175.534 179.829 175.777C179.493 176.015 179.244 176.346 179.08 176.771C178.917 177.191 178.833 177.674 178.828 178.22C178.838 179.06 179.031 179.739 179.409 180.257C179.792 180.77 180.359 181.027 181.11 181.027C181.605 181.027 182.016 180.915 182.342 180.691C182.669 180.462 182.916 180.133 183.084 179.704L184.344 180.033C184.083 180.738 183.675 181.277 183.119 181.65C182.564 182.023 181.894 182.21 181.11 182.21ZM191.156 182V178.213C191.156 177.854 191.123 177.508 191.058 177.177C190.997 176.846 190.888 176.549 190.729 176.288C190.575 176.022 190.365 175.812 190.099 175.658C189.838 175.504 189.506 175.427 189.105 175.427C188.792 175.427 188.508 175.481 188.251 175.588C187.999 175.691 187.782 175.849 187.6 176.064C187.418 176.279 187.276 176.549 187.173 176.876C187.075 177.198 187.026 177.578 187.026 178.017L186.207 177.765C186.207 177.032 186.338 176.405 186.599 175.882C186.865 175.355 187.236 174.951 187.712 174.671C188.193 174.386 188.757 174.244 189.406 174.244C189.896 174.244 190.314 174.321 190.659 174.475C191.004 174.629 191.291 174.834 191.52 175.091C191.749 175.343 191.928 175.628 192.059 175.945C192.19 176.258 192.281 176.577 192.332 176.904C192.388 177.226 192.416 177.532 192.416 177.821V182H191.156ZM185.766 182V171.92H186.886V177.485H187.026V182H185.766ZM200.224 182.21C199.458 182.21 198.807 182.04 198.271 181.699C197.739 181.354 197.333 180.88 197.053 180.278C196.773 179.676 196.628 178.99 196.619 178.22C196.628 177.431 196.775 176.738 197.06 176.141C197.349 175.539 197.762 175.07 198.299 174.734C198.835 174.398 199.482 174.23 200.238 174.23C201.036 174.23 201.722 174.426 202.296 174.818C202.874 175.21 203.262 175.747 203.458 176.428L202.226 176.799C202.067 176.36 201.808 176.02 201.449 175.777C201.094 175.534 200.686 175.413 200.224 175.413C199.706 175.413 199.279 175.534 198.943 175.777C198.607 176.015 198.357 176.346 198.194 176.771C198.03 177.191 197.946 177.674 197.942 178.22C197.951 179.06 198.145 179.739 198.523 180.257C198.905 180.77 199.472 181.027 200.224 181.027C200.718 181.027 201.129 180.915 201.456 180.691C201.782 180.462 202.03 180.133 202.198 179.704L203.458 180.033C203.196 180.738 202.788 181.277 202.233 181.65C201.677 182.023 201.008 182.21 200.224 182.21ZM206.967 182.21C206.402 182.21 205.929 182.107 205.546 181.902C205.168 181.692 204.881 181.417 204.685 181.076C204.494 180.735 204.398 180.362 204.398 179.956C204.398 179.559 204.473 179.216 204.622 178.927C204.776 178.633 204.991 178.39 205.266 178.199C205.541 178.003 205.87 177.849 206.253 177.737C206.612 177.639 207.014 177.555 207.457 177.485C207.905 177.41 208.358 177.343 208.815 177.282C209.272 177.221 209.699 177.163 210.096 177.107L209.648 177.366C209.662 176.694 209.527 176.197 209.242 175.875C208.962 175.553 208.477 175.392 207.786 175.392C207.329 175.392 206.927 175.497 206.582 175.707C206.241 175.912 206.001 176.248 205.861 176.715L204.678 176.358C204.86 175.695 205.212 175.175 205.735 174.797C206.258 174.419 206.946 174.23 207.8 174.23C208.486 174.23 209.074 174.354 209.564 174.601C210.059 174.844 210.413 175.212 210.628 175.707C210.735 175.94 210.803 176.195 210.831 176.47C210.859 176.741 210.873 177.025 210.873 177.324V182H209.767V180.187L210.026 180.355C209.741 180.966 209.342 181.428 208.829 181.741C208.32 182.054 207.7 182.21 206.967 182.21ZM207.156 181.167C207.604 181.167 207.991 181.088 208.318 180.929C208.649 180.766 208.915 180.553 209.116 180.292C209.317 180.026 209.447 179.737 209.508 179.424C209.578 179.191 209.615 178.932 209.62 178.647C209.629 178.358 209.634 178.136 209.634 177.982L210.068 178.171C209.662 178.227 209.263 178.281 208.871 178.332C208.479 178.383 208.108 178.439 207.758 178.5C207.408 178.556 207.093 178.624 206.813 178.703C206.608 178.768 206.414 178.852 206.232 178.955C206.055 179.058 205.91 179.191 205.798 179.354C205.691 179.513 205.637 179.711 205.637 179.949C205.637 180.154 205.688 180.35 205.791 180.537C205.898 180.724 206.062 180.875 206.281 180.992C206.505 181.109 206.797 181.167 207.156 181.167ZM218.076 182V178.213C218.076 177.854 218.043 177.508 217.978 177.177C217.917 176.846 217.808 176.549 217.649 176.288C217.495 176.022 217.285 175.812 217.019 175.658C216.758 175.504 216.426 175.427 216.025 175.427C215.712 175.427 215.428 175.481 215.171 175.588C214.919 175.691 214.702 175.849 214.52 176.064C214.338 176.279 214.196 176.549 214.093 176.876C213.995 177.198 213.946 177.578 213.946 178.017L213.127 177.765C213.127 177.032 213.258 176.405 213.519 175.882C213.785 175.355 214.156 174.951 214.632 174.671C215.113 174.386 215.677 174.244 216.326 174.244C216.816 174.244 217.234 174.321 217.579 174.475C217.924 174.629 218.211 174.834 218.44 175.091C218.669 175.343 218.848 175.628 218.979 175.945C219.11 176.258 219.201 176.577 219.252 176.904C219.308 177.226 219.336 177.532 219.336 177.821V182H218.076ZM212.686 182V174.44H213.806V176.463H213.946V182H212.686ZM226.815 182.203C225.914 182.203 225.174 182.007 224.596 181.615C224.022 181.218 223.669 180.665 223.539 179.956L224.813 179.753C224.915 180.164 225.151 180.49 225.52 180.733C225.888 180.971 226.346 181.09 226.892 181.09C227.41 181.09 227.816 180.983 228.11 180.768C228.404 180.553 228.551 180.262 228.551 179.893C228.551 179.678 228.502 179.506 228.404 179.375C228.306 179.24 228.103 179.114 227.795 178.997C227.491 178.88 227.032 178.74 226.416 178.577C225.748 178.4 225.223 178.215 224.841 178.024C224.458 177.833 224.185 177.611 224.022 177.359C223.858 177.107 223.777 176.801 223.777 176.442C223.777 175.999 223.898 175.611 224.141 175.28C224.383 174.944 224.722 174.685 225.156 174.503C225.594 174.321 226.103 174.23 226.682 174.23C227.256 174.23 227.769 174.321 228.222 174.503C228.674 174.685 229.038 174.944 229.314 175.28C229.594 175.611 229.759 175.999 229.811 176.442L228.537 176.673C228.476 176.267 228.28 175.947 227.949 175.714C227.622 175.481 227.2 175.357 226.682 175.343C226.192 175.324 225.793 175.411 225.485 175.602C225.181 175.793 225.03 176.052 225.03 176.379C225.03 176.561 225.086 176.717 225.198 176.848C225.314 176.979 225.527 177.102 225.835 177.219C226.147 177.336 226.6 177.469 227.193 177.618C227.86 177.786 228.385 177.97 228.768 178.171C229.155 178.367 229.43 178.6 229.594 178.871C229.757 179.137 229.839 179.466 229.839 179.858C229.839 180.586 229.57 181.16 229.034 181.58C228.497 181.995 227.757 182.203 226.815 182.203ZM233.531 182.21C232.967 182.21 232.493 182.107 232.11 181.902C231.732 181.692 231.445 181.417 231.249 181.076C231.058 180.735 230.962 180.362 230.962 179.956C230.962 179.559 231.037 179.216 231.186 178.927C231.34 178.633 231.555 178.39 231.83 178.199C232.106 178.003 232.435 177.849 232.817 177.737C233.177 177.639 233.578 177.555 234.021 177.485C234.469 177.41 234.922 177.343 235.379 177.282C235.837 177.221 236.264 177.163 236.66 177.107L236.212 177.366C236.226 176.694 236.091 176.197 235.806 175.875C235.526 175.553 235.041 175.392 234.35 175.392C233.893 175.392 233.492 175.497 233.146 175.707C232.806 175.912 232.565 176.248 232.425 176.715L231.242 176.358C231.424 175.695 231.777 175.175 232.299 174.797C232.822 174.419 233.51 174.23 234.364 174.23C235.05 174.23 235.638 174.354 236.128 174.601C236.623 174.844 236.978 175.212 237.192 175.707C237.3 175.94 237.367 176.195 237.395 176.47C237.423 176.741 237.437 177.025 237.437 177.324V182H236.331V180.187L236.59 180.355C236.306 180.966 235.907 181.428 235.393 181.741C234.885 182.054 234.264 182.21 233.531 182.21ZM233.72 181.167C234.168 181.167 234.556 181.088 234.882 180.929C235.214 180.766 235.48 180.553 235.68 180.292C235.881 180.026 236.012 179.737 236.072 179.424C236.142 179.191 236.18 178.932 236.184 178.647C236.194 178.358 236.198 178.136 236.198 177.982L236.632 178.171C236.226 178.227 235.827 178.281 235.435 178.332C235.043 178.383 234.672 178.439 234.322 178.5C233.972 178.556 233.657 178.624 233.377 178.703C233.172 178.768 232.978 178.852 232.796 178.955C232.619 179.058 232.474 179.191 232.362 179.354C232.255 179.513 232.201 179.711 232.201 179.949C232.201 180.154 232.253 180.35 232.355 180.537C232.463 180.724 232.626 180.875 232.845 180.992C233.069 181.109 233.361 181.167 233.72 181.167ZM241.028 182L238.284 174.44H239.544L241.665 180.411L243.779 174.44H245.046L242.302 182H241.028ZM249.315 182.21C248.573 182.21 247.924 182.047 247.369 181.72C246.818 181.389 246.389 180.929 246.081 180.341C245.773 179.748 245.619 179.058 245.619 178.269C245.619 177.443 245.77 176.729 246.074 176.127C246.377 175.52 246.799 175.054 247.341 174.727C247.887 174.396 248.526 174.23 249.259 174.23C250.019 174.23 250.666 174.405 251.198 174.755C251.734 175.105 252.136 175.604 252.402 176.253C252.672 176.902 252.789 177.674 252.752 178.57H251.492V178.122C251.478 177.193 251.289 176.5 250.925 176.043C250.561 175.581 250.019 175.35 249.301 175.35C248.531 175.35 247.945 175.597 247.544 176.092C247.142 176.587 246.942 177.296 246.942 178.22C246.942 179.111 247.142 179.802 247.544 180.292C247.945 180.782 248.517 181.027 249.259 181.027C249.758 181.027 250.192 180.913 250.561 180.684C250.929 180.455 251.219 180.126 251.429 179.697L252.626 180.11C252.332 180.777 251.888 181.295 251.296 181.664C250.708 182.028 250.047 182.21 249.315 182.21ZM246.522 178.57V177.569H252.108V178.57H246.522ZM258.163 185.36L259.626 181.384L259.647 182.56L256.343 174.44H257.652L260.242 180.971H259.794L262.223 174.44H263.49L259.374 185.36H258.163ZM267.593 182.21C266.841 182.21 266.193 182.04 265.647 181.699C265.105 181.358 264.688 180.887 264.394 180.285C264.1 179.683 263.953 178.992 263.953 178.213C263.953 177.42 264.102 176.724 264.401 176.127C264.699 175.53 265.122 175.065 265.668 174.734C266.214 174.398 266.855 174.23 267.593 174.23C268.349 174.23 269 174.4 269.546 174.741C270.092 175.077 270.509 175.546 270.799 176.148C271.093 176.745 271.24 177.434 271.24 178.213C271.24 179.002 271.093 179.697 270.799 180.299C270.505 180.896 270.085 181.365 269.539 181.706C268.993 182.042 268.344 182.21 267.593 182.21ZM267.593 181.027C268.377 181.027 268.96 180.766 269.343 180.243C269.725 179.72 269.917 179.044 269.917 178.213C269.917 177.359 269.723 176.68 269.336 176.176C268.948 175.667 268.367 175.413 267.593 175.413C267.065 175.413 266.631 175.532 266.291 175.77C265.95 176.008 265.696 176.337 265.528 176.757C265.36 177.177 265.276 177.662 265.276 178.213C265.276 179.062 265.472 179.744 265.864 180.257C266.256 180.77 266.832 181.027 267.593 181.027ZM275.651 182.196C275.165 182.196 274.748 182.119 274.398 181.965C274.052 181.811 273.765 181.606 273.537 181.349C273.308 181.092 273.128 180.808 272.998 180.495C272.867 180.182 272.774 179.863 272.718 179.536C272.666 179.209 272.641 178.904 272.641 178.619V174.44H273.901V178.227C273.901 178.582 273.933 178.925 273.999 179.256C274.064 179.587 274.174 179.886 274.328 180.152C274.486 180.418 274.696 180.628 274.958 180.782C275.224 180.936 275.555 181.013 275.952 181.013C276.264 181.013 276.549 180.959 276.806 180.852C277.062 180.745 277.282 180.586 277.464 180.376C277.646 180.161 277.786 179.891 277.884 179.564C277.982 179.237 278.031 178.857 278.031 178.423L278.85 178.675C278.85 179.403 278.717 180.031 278.451 180.558C278.189 181.085 277.818 181.491 277.338 181.776C276.862 182.056 276.299 182.196 275.651 182.196ZM278.171 182V179.977H278.031V174.44H279.284V182H278.171ZM26.017 204L26.024 199.163C26.024 198.598 25.8723 198.157 25.569 197.84C25.2703 197.518 24.8807 197.357 24.4 197.357C24.12 197.357 23.854 197.422 23.602 197.553C23.35 197.679 23.1447 197.88 22.986 198.155C22.8273 198.426 22.748 198.773 22.748 199.198L22.09 198.932C22.0807 198.395 22.1903 197.926 22.419 197.525C22.6523 197.119 22.9697 196.804 23.371 196.58C23.7723 196.356 24.225 196.244 24.729 196.244C25.5177 196.244 26.1383 196.484 26.591 196.965C27.0437 197.441 27.27 198.083 27.27 198.89L27.263 204H26.017ZM16.973 204V196.44H18.086V198.463H18.226V204H16.973ZM21.502 204L21.509 199.212C21.509 198.633 21.3597 198.181 21.061 197.854C20.7623 197.523 20.3657 197.357 19.871 197.357C19.381 197.357 18.9843 197.525 18.681 197.861C18.3777 198.197 18.226 198.643 18.226 199.198L17.568 198.806C17.568 198.316 17.6847 197.877 17.918 197.49C18.1513 197.103 18.4687 196.799 18.87 196.58C19.2713 196.356 19.7263 196.244 20.235 196.244C20.7437 196.244 21.187 196.351 21.565 196.566C21.943 196.781 22.2347 197.089 22.44 197.49C22.6453 197.887 22.748 198.36 22.748 198.911L22.741 204H21.502ZM32.2449 204.21C31.4936 204.21 30.8449 204.04 30.2989 203.699C29.7576 203.358 29.3399 202.887 29.0459 202.285C28.7519 201.683 28.6049 200.992 28.6049 200.213C28.6049 199.42 28.7543 198.724 29.0529 198.127C29.3516 197.53 29.7739 197.065 30.3199 196.734C30.8659 196.398 31.5076 196.23 32.2449 196.23C33.0009 196.23 33.6519 196.4 34.1979 196.741C34.7439 197.077 35.1616 197.546 35.4509 198.148C35.7449 198.745 35.8919 199.434 35.8919 200.213C35.8919 201.002 35.7449 201.697 35.4509 202.299C35.1569 202.896 34.7369 203.365 34.1909 203.706C33.6449 204.042 32.9963 204.21 32.2449 204.21ZM32.2449 203.027C33.0289 203.027 33.6123 202.766 33.9949 202.243C34.3776 201.72 34.5689 201.044 34.5689 200.213C34.5689 199.359 34.3753 198.68 33.9879 198.176C33.6006 197.667 33.0196 197.413 32.2449 197.413C31.7176 197.413 31.2836 197.532 30.9429 197.77C30.6023 198.008 30.3479 198.337 30.1799 198.757C30.0119 199.177 29.9279 199.662 29.9279 200.213C29.9279 201.062 30.1239 201.744 30.5159 202.257C30.9079 202.77 31.4843 203.027 32.2449 203.027ZM42.8161 204V200.213C42.8161 199.854 42.7835 199.508 42.7181 199.177C42.6575 198.846 42.5478 198.549 42.3891 198.288C42.2351 198.022 42.0251 197.812 41.7591 197.658C41.4978 197.504 41.1665 197.427 40.7651 197.427C40.4525 197.427 40.1678 197.481 39.9111 197.588C39.6591 197.691 39.4421 197.849 39.2601 198.064C39.0781 198.279 38.9358 198.549 38.8331 198.876C38.7351 199.198 38.6861 199.578 38.6861 200.017L37.8671 199.765C37.8671 199.032 37.9978 198.405 38.2591 197.882C38.5251 197.355 38.8961 196.951 39.3721 196.671C39.8528 196.386 40.4175 196.244 41.0661 196.244C41.5561 196.244 41.9738 196.321 42.3191 196.475C42.6645 196.629 42.9515 196.834 43.1801 197.091C43.4088 197.343 43.5885 197.628 43.7191 197.945C43.8498 198.258 43.9408 198.577 43.9921 198.904C44.0481 199.226 44.0761 199.532 44.0761 199.821V204H42.8161ZM37.4261 204V196.44H38.5461V198.463H38.6861V204H37.4261ZM49.1037 204.21C48.3617 204.21 47.713 204.047 47.1577 203.72C46.607 203.389 46.1777 202.929 45.8697 202.341C45.5617 201.748 45.4077 201.058 45.4077 200.269C45.4077 199.443 45.5593 198.729 45.8627 198.127C46.166 197.52 46.5883 197.054 47.1297 196.727C47.6757 196.396 48.315 196.23 49.0477 196.23C49.8083 196.23 50.4547 196.405 50.9867 196.755C51.5233 197.105 51.9247 197.604 52.1907 198.253C52.4613 198.902 52.578 199.674 52.5407 200.57H51.2807V200.122C51.2667 199.193 51.0777 198.5 50.7137 198.043C50.3497 197.581 49.8083 197.35 49.0897 197.35C48.3197 197.35 47.734 197.597 47.3327 198.092C46.9313 198.587 46.7307 199.296 46.7307 200.22C46.7307 201.111 46.9313 201.802 47.3327 202.292C47.734 202.782 48.3057 203.027 49.0477 203.027C49.547 203.027 49.981 202.913 50.3497 202.684C50.7183 202.455 51.0077 202.126 51.2177 201.697L52.4147 202.11C52.1207 202.777 51.6773 203.295 51.0847 203.664C50.4967 204.028 49.8363 204.21 49.1037 204.21ZM46.3107 200.57V199.569H51.8967V200.57H46.3107ZM55.0124 207.36L56.4754 203.384L56.4964 204.56L53.1924 196.44H54.5014L57.0914 202.971H56.6434L59.0724 196.44H60.3394L56.2234 207.36H55.0124ZM64.4384 195.103V193.815H65.6844V195.103H64.4384ZM64.4384 204V196.44H65.6844V204H64.4384ZM73.1677 204V200.213C73.1677 199.854 73.135 199.508 73.0697 199.177C73.009 198.846 72.8994 198.549 72.7407 198.288C72.5867 198.022 72.3767 197.812 72.1107 197.658C71.8494 197.504 71.518 197.427 71.1167 197.427C70.804 197.427 70.5194 197.481 70.2627 197.588C70.0107 197.691 69.7937 197.849 69.6117 198.064C69.4297 198.279 69.2874 198.549 69.1847 198.876C69.0867 199.198 69.0377 199.578 69.0377 200.017L68.2187 199.765C68.2187 199.032 68.3494 198.405 68.6107 197.882C68.8767 197.355 69.2477 196.951 69.7237 196.671C70.2044 196.386 70.769 196.244 71.4177 196.244C71.9077 196.244 72.3254 196.321 72.6707 196.475C73.016 196.629 73.303 196.834 73.5317 197.091C73.7604 197.343 73.94 197.628 74.0707 197.945C74.2014 198.258 74.2924 198.577 74.3437 198.904C74.3997 199.226 74.4277 199.532 74.4277 199.821V204H73.1677ZM67.7777 204V196.44H68.8977V198.463H69.0377V204H67.7777ZM83.2713 204C82.8233 204.089 82.38 204.124 81.9413 204.105C81.5073 204.091 81.12 204.005 80.7793 203.846C80.4386 203.683 80.1796 203.431 80.0023 203.09C79.853 202.791 79.7713 202.49 79.7573 202.187C79.748 201.879 79.7433 201.531 79.7433 201.144V194.34H80.9893V201.088C80.9893 201.396 80.9916 201.66 80.9963 201.879C81.0056 202.098 81.0546 202.287 81.1433 202.446C81.3113 202.745 81.5773 202.92 81.9413 202.971C82.31 203.022 82.7533 203.008 83.2713 202.929V204ZM78.2103 197.469V196.44H83.2713V197.469H78.2103ZM90.1892 204V200.213C90.1892 199.854 90.1565 199.508 90.0912 199.177C90.0305 198.846 89.9208 198.549 89.7622 198.288C89.6082 198.022 89.3982 197.812 89.1322 197.658C88.8708 197.504 88.5395 197.427 88.1382 197.427C87.8255 197.427 87.5408 197.481 87.2842 197.588C87.0322 197.691 86.8152 197.849 86.6332 198.064C86.4512 198.279 86.3088 198.549 86.2062 198.876C86.1082 199.198 86.0592 199.578 86.0592 200.017L85.2402 199.765C85.2402 199.032 85.3708 198.405 85.6322 197.882C85.8982 197.355 86.2692 196.951 86.7452 196.671C87.2258 196.386 87.7905 196.244 88.4392 196.244C88.9292 196.244 89.3468 196.321 89.6922 196.475C90.0375 196.629 90.3245 196.834 90.5532 197.091C90.7818 197.343 90.9615 197.628 91.0922 197.945C91.2228 198.258 91.3138 198.577 91.3652 198.904C91.4212 199.226 91.4492 199.532 91.4492 199.821V204H90.1892ZM84.7992 204V193.92H85.9192V199.485H86.0592V204H84.7992ZM96.5451 204.21C95.8031 204.21 95.1544 204.047 94.5991 203.72C94.0484 203.389 93.6191 202.929 93.3111 202.341C93.0031 201.748 92.8491 201.058 92.8491 200.269C92.8491 199.443 93.0007 198.729 93.3041 198.127C93.6074 197.52 94.0297 197.054 94.5711 196.727C95.1171 196.396 95.7564 196.23 96.4891 196.23C97.2497 196.23 97.8961 196.405 98.4281 196.755C98.9647 197.105 99.3661 197.604 99.6321 198.253C99.9027 198.902 100.019 199.674 99.9821 200.57H98.7221V200.122C98.7081 199.193 98.5191 198.5 98.1551 198.043C97.7911 197.581 97.2497 197.35 96.5311 197.35C95.7611 197.35 95.1754 197.597 94.7741 198.092C94.3727 198.587 94.1721 199.296 94.1721 200.22C94.1721 201.111 94.3727 201.802 94.7741 202.292C95.1754 202.782 95.7471 203.027 96.4891 203.027C96.9884 203.027 97.4224 202.913 97.7911 202.684C98.1597 202.455 98.4491 202.126 98.6591 201.697L99.8561 202.11C99.5621 202.777 99.1187 203.295 98.5261 203.664C97.9381 204.028 97.2777 204.21 96.5451 204.21ZM93.7521 200.57V199.569H99.3381V200.57H93.7521ZM104.483 204V193.71H105.729V204H104.483ZM111.05 204.21C110.298 204.21 109.65 204.04 109.104 203.699C108.562 203.358 108.145 202.887 107.851 202.285C107.557 201.683 107.41 200.992 107.41 200.213C107.41 199.42 107.559 198.724 107.858 198.127C108.156 197.53 108.579 197.065 109.125 196.734C109.671 196.398 110.312 196.23 111.05 196.23C111.806 196.23 112.457 196.4 113.003 196.741C113.549 197.077 113.966 197.546 114.256 198.148C114.55 198.745 114.697 199.434 114.697 200.213C114.697 201.002 114.55 201.697 114.256 202.299C113.962 202.896 113.542 203.365 112.996 203.706C112.45 204.042 111.801 204.21 111.05 204.21ZM111.05 203.027C111.834 203.027 112.417 202.766 112.8 202.243C113.182 201.72 113.374 201.044 113.374 200.213C113.374 199.359 113.18 198.68 112.793 198.176C112.405 197.667 111.824 197.413 111.05 197.413C110.522 197.413 110.088 197.532 109.748 197.77C109.407 198.008 109.153 198.337 108.985 198.757C108.817 199.177 108.733 199.662 108.733 200.213C108.733 201.062 108.929 201.744 109.321 202.257C109.713 202.77 110.289 203.027 111.05 203.027ZM121.621 204V200.213C121.621 199.854 121.588 199.508 121.523 199.177C121.462 198.846 121.352 198.549 121.194 198.288C121.04 198.022 120.83 197.812 120.564 197.658C120.302 197.504 119.971 197.427 119.57 197.427C119.257 197.427 118.972 197.481 118.716 197.588C118.464 197.691 118.247 197.849 118.065 198.064C117.883 198.279 117.74 198.549 117.638 198.876C117.54 199.198 117.491 199.578 117.491 200.017L116.672 199.765C116.672 199.032 116.802 198.405 117.064 197.882C117.33 197.355 117.701 196.951 118.177 196.671C118.657 196.386 119.222 196.244 119.871 196.244C120.361 196.244 120.778 196.321 121.124 196.475C121.469 196.629 121.756 196.834 121.985 197.091C122.213 197.343 122.393 197.628 122.524 197.945C122.654 198.258 122.745 198.577 122.797 198.904C122.853 199.226 122.881 199.532 122.881 199.821V204H121.621ZM116.231 204V196.44H117.351V198.463H117.491V204H116.231ZM127.76 207.57C127.363 207.57 126.976 207.509 126.598 207.388C126.22 207.267 125.872 207.082 125.555 206.835C125.242 206.592 124.981 206.284 124.771 205.911L125.912 205.309C126.098 205.678 126.362 205.946 126.703 206.114C127.048 206.282 127.403 206.366 127.767 206.366C128.247 206.366 128.646 206.277 128.964 206.1C129.281 205.927 129.514 205.668 129.664 205.323C129.818 204.978 129.892 204.548 129.888 204.035V201.97H130.035V196.44H131.141V204.049C131.141 204.254 131.134 204.453 131.12 204.644C131.11 204.835 131.087 205.024 131.05 205.211C130.952 205.748 130.758 206.189 130.469 206.534C130.179 206.884 129.806 207.143 129.349 207.311C128.891 207.484 128.362 207.57 127.76 207.57ZM127.669 204.21C126.964 204.21 126.36 204.035 125.856 203.685C125.352 203.33 124.962 202.852 124.687 202.25C124.416 201.648 124.281 200.969 124.281 200.213C124.281 199.457 124.416 198.778 124.687 198.176C124.962 197.574 125.352 197.1 125.856 196.755C126.36 196.405 126.962 196.23 127.662 196.23C128.376 196.23 128.975 196.403 129.461 196.748C129.946 197.093 130.312 197.567 130.56 198.169C130.812 198.771 130.938 199.452 130.938 200.213C130.938 200.964 130.812 201.643 130.56 202.25C130.312 202.852 129.946 203.33 129.461 203.685C128.975 204.035 128.378 204.21 127.669 204.21ZM127.823 203.069C128.331 203.069 128.749 202.948 129.076 202.705C129.402 202.458 129.643 202.119 129.797 201.69C129.955 201.256 130.035 200.764 130.035 200.213C130.035 199.653 129.955 199.161 129.797 198.736C129.643 198.307 129.405 197.973 129.083 197.735C128.761 197.492 128.352 197.371 127.858 197.371C127.344 197.371 126.92 197.497 126.584 197.749C126.252 198.001 126.005 198.342 125.842 198.771C125.683 199.2 125.604 199.681 125.604 200.213C125.604 200.75 125.685 201.235 125.849 201.669C126.012 202.098 126.257 202.439 126.584 202.691C126.915 202.943 127.328 203.069 127.823 203.069ZM135.898 204V196.44H137.011V198.267L136.829 198.029C136.918 197.796 137.032 197.581 137.172 197.385C137.317 197.189 137.478 197.028 137.655 196.902C137.851 196.743 138.073 196.622 138.32 196.538C138.567 196.454 138.819 196.405 139.076 196.391C139.333 196.372 139.573 196.389 139.797 196.44V197.609C139.536 197.539 139.249 197.52 138.936 197.553C138.623 197.586 138.334 197.7 138.068 197.896C137.825 198.069 137.636 198.279 137.501 198.526C137.37 198.773 137.279 199.042 137.228 199.331C137.177 199.616 137.151 199.907 137.151 200.206V204H135.898ZM143.991 204.196C143.505 204.196 143.088 204.119 142.738 203.965C142.392 203.811 142.105 203.606 141.877 203.349C141.648 203.092 141.468 202.808 141.338 202.495C141.207 202.182 141.114 201.863 141.058 201.536C141.006 201.209 140.981 200.904 140.981 200.619V196.44H142.241V200.227C142.241 200.582 142.273 200.925 142.339 201.256C142.404 201.587 142.514 201.886 142.668 202.152C142.826 202.418 143.036 202.628 143.298 202.782C143.564 202.936 143.895 203.013 144.292 203.013C144.604 203.013 144.889 202.959 145.146 202.852C145.402 202.745 145.622 202.586 145.804 202.376C145.986 202.161 146.126 201.891 146.224 201.564C146.322 201.237 146.371 200.857 146.371 200.423L147.19 200.675C147.19 201.403 147.057 202.031 146.791 202.558C146.529 203.085 146.158 203.491 145.678 203.776C145.202 204.056 144.639 204.196 143.991 204.196ZM146.511 204V201.977H146.371V196.44H147.624V204H146.511ZM154.967 204V200.213C154.967 199.854 154.934 199.508 154.869 199.177C154.808 198.846 154.698 198.549 154.54 198.288C154.386 198.022 154.176 197.812 153.91 197.658C153.648 197.504 153.317 197.427 152.916 197.427C152.603 197.427 152.318 197.481 152.062 197.588C151.81 197.691 151.593 197.849 151.411 198.064C151.229 198.279 151.086 198.549 150.984 198.876C150.886 199.198 150.837 199.578 150.837 200.017L150.018 199.765C150.018 199.032 150.148 198.405 150.41 197.882C150.676 197.355 151.047 196.951 151.523 196.671C152.003 196.386 152.568 196.244 153.217 196.244C153.707 196.244 154.124 196.321 154.47 196.475C154.815 196.629 155.102 196.834 155.331 197.091C155.559 197.343 155.739 197.628 155.87 197.945C156 198.258 156.091 198.577 156.143 198.904C156.199 199.226 156.227 199.532 156.227 199.821V204H154.967ZM149.577 204V196.44H150.697V198.463H150.837V204H149.577ZM158.27 204V202.628H159.642V204H158.27Z" fill="#777C80"/>
</svg>
